<?xml version="1.0" standalone="no"?>
<!DOCTYPE svg PUBLIC "-//W3C//DTD SVG 1.1//EN" "http://www.w3.org/Graphics/SVG/1.1/DTD/svg11.dtd" >
<!--
2013-9-30: Created.
-->
<svg>
<metadata>
Created by iconfont
</metadata>
<defs>

<font id="iconfont" horiz-adv-x="1024" >
  <font-face
    font-family="iconfont"
    font-weight="500"
    font-stretch="normal"
    units-per-em="1024"
    ascent="896"
    descent="-128"
  />
    <missing-glyph />
    
    <glyph glyph-name="fang" unicode="&#58957;" d="M364.888942 741.651978v-716.155363h716.155363V741.651978H364.888942z m-77.842975 77.842974h871.841312v-871.841311H287.045967V819.494952z m0 0M287.045967 819.494952h871.841312v-871.841311H287.045967z"  horiz-adv-x="1448" />

    
    <glyph glyph-name="yuan" unicode="&#58958;" d="M511.675602-46.900478c238.145628 0 431.199922 193.054294 431.199922 431.199922s-193.054294 431.199922-431.199922 431.199922S80.47568 622.445073 80.47568 384.311921s193.054294-431.199922 431.199922-431.199922z m0-79.851837c-282.251292 0-511.051759 228.800468-511.05176 511.051759s228.800468 511.051759 511.05176 511.05176 511.051759-228.800468 511.051759-511.05176-228.800468-511.051759-511.051759-511.051759z m0 0M512.773565 384m-512 0a512 512 0 1 1 1024 0 512 512 0 1 1-1024 0Z"  horiz-adv-x="1024" />

    
    <glyph glyph-name="datu-xuanzhong" unicode="&#58953;" d="M797.866667-85.333333V669.866667H42.666667V-85.333333h755.2zM115.2 597.333333H725.333333v-605.866666H115.2V597.333333z m0 0M908.8 115.2H981.333333V853.333333H243.2v-72.533333h661.333333v-665.6z m0 0M204.8 503.466667h426.666667v-426.666667h-426.666667z"  horiz-adv-x="1024" />

    
    <glyph glyph-name="datu" unicode="&#58954;" d="M797.866667-85.333333V669.866667H42.666667V-85.333333h755.2zM115.2 597.333333H725.333333v-605.866666H115.2V597.333333z m0 0M908.8 115.2H981.333333V853.333333H243.2v-72.533333h661.333333v-665.6z m0 0M204.8 503.466667h426.666667v-426.666667h-426.666667z"  horiz-adv-x="1024" />

    
    <glyph glyph-name="liebiao" unicode="&#58955;" d="M938.666667 669.866667H281.6c-25.6 0-42.666667 21.333333-42.666667 42.666666 0 25.6 21.333333 42.666667 42.666667 42.666667H938.666667c25.6 0 42.666667-21.333333 42.666666-42.666667s-21.333333-42.666667-42.666666-42.666666z m0-332.8H281.6c-25.6 0-42.666667 21.333333-42.666667 42.666666s21.333333 42.666667 42.666667 42.666667H938.666667c25.6 0 42.666667-21.333333 42.666666-42.666667s-21.333333-42.666667-42.666666-42.666666z m0-328.533334H281.6c-25.6 0-42.666667 21.333333-42.666667 42.666667 0 25.6 21.333333 42.666667 42.666667 42.666667H938.666667c25.6 0 42.666667-21.333333 42.666666-42.666667s-21.333333-42.666667-42.666666-42.666667zM85.333333 669.866667H72.533333c-4.266667 0-8.533333 4.266667-12.8 8.533333 0 0 0 4.266667-4.266666 4.266667 0 0 0 4.266667-4.266667 4.266666v4.266667V716.8v4.266667V725.333333v4.266667c0 4.266667 4.266667 4.266667 4.266667 8.533333l4.266666 4.266667H93.866667l4.266666-4.266667c25.6 0 29.866667-4.266667 29.866667-4.266666V695.466667l-4.266667-4.266667-4.266666-4.266667c-4.266667 0-4.266667-4.266667-8.533334-4.266666h-4.266666-4.266667l-17.066667-12.8c4.266667 0 4.266667 0 0 0z m0-332.8H72.533333c-4.266667 0-8.533333 4.266667-12.8 8.533333 0 4.266667-4.266667 4.266667-4.266666 8.533333s-4.266667 4.266667-4.266667 8.533334V384v8.533333 4.266667 4.266667l4.266667 4.266666s0 4.266667 4.266666 4.266667c0 0 4.266667 0 4.266667 4.266667 4.266667 0 8.533333 4.266667 8.533333 4.266666h8.533334L85.333333 426.666667h21.333334c4.266667 0 4.266667-4.266667 8.533333-4.266667 0 0 0-4.266667 4.266667-4.266667 8.533333-17.066667 8.533333-17.066667 8.533333-21.333333v-25.6c0-4.266667 0-4.266667-4.266667-8.533333l-4.266666-4.266667s0-4.266667-4.266667-4.266667l-4.266667-4.266666h-4.266666-4.266667-4.266667c-8.533333-12.8-8.533333-12.8-12.8-12.8 4.266667 0 4.266667 0 0 0z m0-328.533334H72.533333h-4.266666s-4.266667 0-4.266667 4.266667-4.266667 4.266667-4.266667 8.533333 0 4.266667-4.266666 8.533334v4.266666 8.533334 8.533333s0 4.266667 4.266666 4.266667c0 4.266667 4.266667 4.266667 4.266667 8.533333 0 0 4.266667 0 4.266667 4.266667h38.4s4.266667 0 4.266666-4.266667l4.266667-4.266667v-55.466666s-4.266667 0-4.266667-4.266667c-4.266667 0-4.266667 0-8.533333-4.266667-8.533333 12.8-12.8 12.8-17.066667 12.8z m0 0"  horiz-adv-x="1024" />

    
    <glyph glyph-name="liebiao-xuanzhong" unicode="&#58956;" d="M938.666667 669.866667H281.6c-25.6 0-42.666667 21.333333-42.666667 42.666666 0 25.6 21.333333 42.666667 42.666667 42.666667H938.666667c25.6 0 42.666667-21.333333 42.666666-42.666667s-21.333333-42.666667-42.666666-42.666666z m0-332.8H281.6c-25.6 0-42.666667 21.333333-42.666667 42.666666s21.333333 42.666667 42.666667 42.666667H938.666667c25.6 0 42.666667-21.333333 42.666666-42.666667s-21.333333-42.666667-42.666666-42.666666z m0-328.533334H281.6c-25.6 0-42.666667 21.333333-42.666667 42.666667 0 25.6 21.333333 42.666667 42.666667 42.666667H938.666667c25.6 0 42.666667-21.333333 42.666666-42.666667s-21.333333-42.666667-42.666666-42.666667zM85.333333 669.866667H72.533333c-4.266667 0-8.533333 4.266667-12.8 8.533333 0 0 0 4.266667-4.266666 4.266667 0 0 0 4.266667-4.266667 4.266666v4.266667V716.8v4.266667V725.333333v4.266667c0 4.266667 4.266667 4.266667 4.266667 8.533333l4.266666 4.266667H93.866667l4.266666-4.266667c25.6 0 29.866667-4.266667 29.866667-4.266666V695.466667l-4.266667-4.266667-4.266666-4.266667c-4.266667 0-4.266667-4.266667-8.533334-4.266666h-4.266666-4.266667l-17.066667-12.8c4.266667 0 4.266667 0 0 0z m0-332.8H72.533333c-4.266667 0-8.533333 4.266667-12.8 8.533333 0 4.266667-4.266667 4.266667-4.266666 8.533333s-4.266667 4.266667-4.266667 8.533334V384v8.533333 4.266667 4.266667l4.266667 4.266666s0 4.266667 4.266666 4.266667c0 0 4.266667 0 4.266667 4.266667 4.266667 0 8.533333 4.266667 8.533333 4.266666h8.533334L85.333333 426.666667h21.333334c4.266667 0 4.266667-4.266667 8.533333-4.266667 0 0 0-4.266667 4.266667-4.266667 8.533333-17.066667 8.533333-17.066667 8.533333-21.333333v-25.6c0-4.266667 0-4.266667-4.266667-8.533333l-4.266666-4.266667s0-4.266667-4.266667-4.266667l-4.266667-4.266666h-4.266666-4.266667-4.266667c-8.533333-12.8-8.533333-12.8-12.8-12.8 4.266667 0 4.266667 0 0 0z m0-328.533334H72.533333h-4.266666s-4.266667 0-4.266667 4.266667-4.266667 4.266667-4.266667 8.533333 0 4.266667-4.266666 8.533334v4.266666 8.533334 8.533333s0 4.266667 4.266666 4.266667c0 4.266667 4.266667 4.266667 4.266667 8.533333 0 0 4.266667 0 4.266667 4.266667h38.4s4.266667 0 4.266666-4.266667l4.266667-4.266667v-55.466666s-4.266667 0-4.266667-4.266667c-4.266667 0-4.266667 0-8.533333-4.266667-8.533333 12.8-12.8 12.8-17.066667 12.8z m0 0"  horiz-adv-x="1024" />

    
    <glyph glyph-name="you" unicode="&#58951;" d="M184.32 384c0-180.224 147.456-327.68 327.68-327.68s327.68 147.456 327.68 327.68S692.224 711.68 512 711.68 184.32 564.224 184.32 384z m305.152 186.368L675.84 384l-186.368-186.368H348.16l186.368 186.368-186.368 186.368h141.312z m0 0"  horiz-adv-x="1024" />

    
    <glyph glyph-name="zuo" unicode="&#58952;" d="M839.68 384c0 180.224-147.456 327.68-327.68 327.68S184.32 564.224 184.32 384s147.456-327.68 327.68-327.68 327.68 147.456 327.68 327.68z m-163.84 186.368L489.472 384l186.368-186.368h-141.312L348.16 384l186.368 186.368H675.84z m-141.312 0"  horiz-adv-x="1024" />

    
    <glyph glyph-name="fanhui" unicode="&#58950;" d="M430.08 530.773333V698.026667L136.533333 404.48l293.546667-293.546667v170.666667c208.213333 0 354.986667-68.266667 457.386667-211.626667-40.96 208.213333-167.253333 419.84-457.386667 460.8"  horiz-adv-x="1024" />

    
    <glyph glyph-name="03heyuefabu-baocun2" unicode="&#58949;" d="M989.866667 544.426667v17.066666s-3.413333 23.893333-6.826667 30.72c-3.413333 6.826667-17.066667 27.306667-17.066667 27.306667l-6.826666 6.826667L771.413333 827.733333l-6.826666 6.826667c-34.133333 30.72-78.506667 30.72-78.506667 30.72L682.666667 861.866667H204.8C112.64 861.866667 34.133333 786.773333 34.133333 691.2v-614.4c0-95.573333 78.506667-170.666667 170.666667-170.666667h614.4c95.573333 0 170.666667 78.506667 170.666667 170.666667V544.426667zM204.8 769.706667h471.04v-88.746667c0-54.613333-44.373333-98.986667-98.986667-98.986667h-273.066666C249.173333 581.973333 204.8 626.346667 204.8 680.96V769.706667z m614.4-774.826667h-331.093333v235.52H310.613333v-235.52H204.8v273.066667c0 44.373333 34.133333 78.506667 78.506667 78.506666h453.973333c44.373333 0 78.506667-37.546667 78.506667-78.506666l3.413333-273.066667z m0 0"  horiz-adv-x="1024" />

    
    <glyph glyph-name="01lianmengjiedian-heyuexiang" unicode="&#58899;" d="M757.76 76.8H266.24c-15.36 0-30.72 15.36-30.72 30.72s15.36 30.72 30.72 30.72h491.52c15.36 0 30.72-15.36 30.72-30.72s-15.36-30.72-30.72-30.72z m30.72 261.12h-163.84c-20.48 0-40.96 15.36-40.96 35.84 0 10.24 5.12 20.48 15.36 30.72 46.08 25.6 81.92 76.8 81.92 133.12 0 87.04-76.8 153.6-163.84 153.6-97.28 0-168.96-66.56-168.96-153.6 0-56.32 30.72-107.52 81.92-133.12 10.24-5.12 15.36-15.36 15.36-30.72 0-20.48-15.36-30.72-30.72-35.84H235.52c-15.36 0-30.72-15.36-30.72-30.72v-87.04c0-15.36 15.36-30.72 30.72-30.72h552.96c15.36 0 30.72 15.36 30.72 30.72v87.04c0 20.48-15.36 30.72-30.72 30.72z m0 0"  horiz-adv-x="1024" />

    
    <glyph glyph-name="01lianmengjiedian-fabu" unicode="&#58900;" d="M808.96 686.08c10.24-5.12 10.24-10.24 10.24-20.48l-87.04-527.36c0-5.12-5.12-10.24-10.24-15.36-5.12 0-5.12-5.12-10.24-5.12h-10.24l-153.6 61.44-81.92-102.4c-5.12 5.12-10.24 0-20.48 0h-5.12c-5.12 0-10.24 5.12-10.24 10.24-5.12 5.12-5.12 10.24-5.12 10.24v117.76l296.96 363.52-368.64-317.44-133.12 56.32c-10.24 5.12-15.36 10.24-15.36 20.48s5.12 15.36 10.24 20.48l568.32 327.68c5.12 5.12 10.24 5.12 15.36 5.12 5.12 0 5.12 0 10.24-5.12z m0 0"  horiz-adv-x="1024" />

    
    <glyph glyph-name="01lianmengjiedian-shijian" unicode="&#58901;" d="M752.64 563.2c-10.24 15.36-30.72 25.6-51.2 25.6h-15.36v35.84c0 10.24-5.12 15.36-15.36 15.36-10.24 0-15.36-5.12-15.36-15.36V588.8h30.72v-40.96c0-10.24-5.12-15.36-15.36-15.36s-15.36 5.12-15.36 15.36V588.8H373.76v35.84c0 10.24-5.12 15.36-15.36 15.36-10.24 0-15.36-5.12-15.36-15.36V588.8h30.72v-40.96c0-10.24-5.12-15.36-15.36-15.36-10.24 0-15.36 5.12-15.36 15.36V588.8h-15.36c-10.24 0-20.48-5.12-30.72-10.24-5.12 0-10.24-5.12-15.36-10.24-15.36-10.24-25.6-30.72-25.6-51.2v-322.56c0-20.48 10.24-35.84 25.6-51.2 5.12-5.12 15.36-10.24 25.6-15.36h394.24c20.48 0 35.84 10.24 51.2 25.6 10.24 15.36 15.36 30.72 15.36 51.2V506.88c0 20.48-5.12 40.96-15.36 56.32z m-348.16-322.56c0-5.12-10.24-10.24-20.48-10.24h-40.96c-10.24 0-20.48 5.12-20.48 10.24v30.72c0 5.12 10.24 10.24 20.48 10.24h40.96c10.24 0 20.48-5.12 20.48-10.24v-30.72z m0 97.28c0-5.12-10.24-10.24-20.48-10.24h-40.96c-10.24 0-20.48 5.12-20.48 10.24v30.72c0 5.12 10.24 10.24 20.48 10.24h40.96c10.24 0 20.48-5.12 20.48-10.24v-30.72z m143.36-97.28c0-5.12-10.24-10.24-20.48-10.24h-40.96c-10.24 0-20.48 5.12-20.48 10.24v30.72c0 5.12 10.24 10.24 20.48 10.24h40.96c10.24 0 20.48-5.12 20.48-10.24v-30.72z m0 97.28c0-5.12-10.24-10.24-20.48-10.24h-40.96c-10.24 0-20.48 5.12-20.48 10.24v30.72c0 5.12 10.24 10.24 20.48 10.24h40.96c10.24 0 20.48-5.12 20.48-10.24v-30.72z m148.48-97.28c0-5.12-10.24-10.24-20.48-10.24h-40.96c-10.24 0-20.48 5.12-20.48 10.24v30.72c0 5.12 10.24 10.24 20.48 10.24h40.96c10.24 0 20.48-5.12 20.48-10.24v-30.72z m0 97.28c0-5.12-10.24-10.24-20.48-10.24h-40.96c-10.24 0-20.48 5.12-20.48 10.24v30.72c0 5.12 10.24 10.24 20.48 10.24h40.96c10.24 0 20.48-5.12 20.48-10.24v-30.72zM680.96 435.2H343.04c-10.24 0-20.48 10.24-20.48 20.48s5.12 15.36 15.36 15.36h343.04c10.24 0 15.36-5.12 15.36-15.36s-5.12-20.48-15.36-20.48z m0 0"  horiz-adv-x="1024" />

    
    <glyph glyph-name="01lianmengjiedian-jiedianyonghu" unicode="&#58902;" d="M824.32 384c-10.24 0-15.36 0-25.6-5.12l-107.52 174.08c20.48 30.72 15.36 71.68-5.12 102.4-20.48 30.72-61.44 40.96-92.16 30.72-35.84-10.24-56.32-46.08-56.32-87.04 0-20.48 10.24-40.96 20.48-56.32l-107.52-215.04c-15.36 5.12-25.6 5.12-35.84 5.12-25.6 0-46.08-5.12-66.56-20.48L261.12 424.96c5.12 10.24 10.24 20.48 10.24 35.84 0 35.84-20.48 61.44-51.2 71.68-30.72 10.24-61.44 0-81.92-30.72-15.36-25.6-15.36-66.56 5.12-92.16s56.32-35.84 81.92-20.48l87.04-112.64c-25.6-40.96-25.6-92.16-5.12-133.12 25.6-40.96 66.56-66.56 107.52-66.56 66.56 0 117.76 56.32 117.76 128 0 40.96-15.36 76.8-46.08 97.28l107.52 209.92c5.12 0 15.36-5.12 20.48-5.12 10.24 0 25.6 5.12 35.84 10.24l107.52-174.08c-5.12-10.24-10.24-25.6-10.24-40.96 0-40.96 30.72-76.8 71.68-76.8 40.96 0 71.68 35.84 71.68 76.8 5.12 46.08-25.6 81.92-66.56 81.92z m0 0"  horiz-adv-x="1024" />

    
    <glyph glyph-name="01lianmengjiedian-weilianjie" unicode="&#58903;" d="M344.746667 42.666667c-37.546667 0-75.093333 13.653333-98.986667 40.96l-30.72 30.72c-30.72 27.306667-44.373333 64.853333-44.373333 102.4s13.653333 75.093333 40.96 98.986666l54.613333 54.613334c13.653333 13.653333 34.133333 13.653333 47.786667 0 13.653333-13.653333 13.653333-34.133333 0-47.786667l-54.613334-54.613333c-13.653333-13.653333-23.893333-34.133333-23.893333-54.613334 0-20.48 6.826667-40.96 23.893333-54.613333l30.72-30.72c27.306667-27.306667 78.506667-27.306667 109.226667 0l54.613333 54.613333c13.653333 13.653333 34.133333 13.653333 47.786667 0 13.653333-13.653333 13.653333-34.133333 0-47.786666L443.733333 83.626667c-27.306667-23.893333-61.44-40.96-98.986666-40.96z m389.12 344.746666c-6.826667 0-17.066667 3.413333-23.893334 10.24-13.653333 13.653333-13.653333 34.133333 0 47.786667l54.613334 54.613333c13.653333 13.653333 23.893333 34.133333 23.893333 54.613334 0 20.48-6.826667 40.96-23.893333 54.613333l-30.72 30.72c-30.72 30.72-78.506667 30.72-109.226667 0l-54.613333-54.613333c-13.653333-13.653333-34.133333-13.653333-47.786667 0-13.653333 13.653333-13.653333 34.133333 0 47.786666L580.266667 684.373333c54.613333 54.613333 146.773333 54.613333 201.386666 0l30.72-30.72c27.306667-27.306667 40.96-64.853333 40.96-102.4s-13.653333-75.093333-40.96-98.986666l-54.613333-54.613334c-6.826667-6.826667-13.653333-10.24-23.893333-10.24zM375.466667 411.306667H269.653333c-17.066667 0-34.133333 13.653333-34.133333 34.133333 0 17.066667 13.653333 34.133333 34.133333 34.133333H375.466667c17.066667 0 34.133333-13.653333 34.133333-34.133333 0-17.066667-13.653333-34.133333-34.133333-34.133333z m61.44 64.853333c-17.066667 0-34.133333 13.653333-34.133334 34.133333V619.52c0 17.066667 13.653333 34.133333 34.133334 34.133333 17.066667 0 34.133333-13.653333 34.133333-34.133333v-109.226667c0-17.066667-13.653333-34.133333-34.133333-34.133333z m310.613333-194.56c-3.413333 0-3.413333 0 0 0l-122.88 6.826667c-17.066667 0-30.72 17.066667-30.72 34.133333s17.066667 30.72 34.133333 30.72l119.466667-6.826667c17.066667 0 30.72-17.066667 30.72-34.133333s-13.653333-30.72-30.72-30.72z m-170.666667-174.08c-17.066667 0-30.72 13.653333-34.133333 30.72l-13.653333 119.466667c-3.413333 17.066667 10.24 34.133333 30.72 37.546666 17.066667 3.413333 34.133333-10.24 37.546666-30.72l13.653334-119.466666c3.413333-17.066667-10.24-34.133333-30.72-37.546667h-3.413334z m0 0"  horiz-adv-x="1024" />

    
    <glyph glyph-name="01lianmengjiedian-yilianjie" unicode="&#58904;" d="M279.893333 424.96c0-109.226667 54.613333-208.213333 146.773334-269.653333l81.92-54.613334 81.92 54.613334c92.16 61.44 146.773333 160.426667 146.773333 269.653333V588.8c-75.093333 10.24-153.6 40.96-228.693333 78.506667-75.093333-40.96-153.6-68.266667-228.693334-78.506667v-163.84zM204.8 660.48c102.4 0 204.8 34.133333 307.2 98.986667 102.4-64.853333 204.8-98.986667 307.2-98.986667v-235.52c0-136.533333-64.853333-259.413333-184.32-334.506667L512 8.533333l-122.88 78.506667C269.653333 165.546667 204.8 288.426667 204.8 424.96V660.48z m279.893333-296.96l136.533334 136.533333c13.653333 13.653333 40.96 13.653333 54.613333 0 13.653333-13.653333 13.653333-40.96 0-54.613333L512 291.84c-10.24-10.24-20.48-13.653333-30.72-13.653333-10.24 0-20.48 3.413333-23.893333 13.653333l-92.16 85.333333c-13.653333 13.653333-13.653333 40.96 0 54.613334 13.653333 13.653333 40.96 13.653333 54.613333 0l64.853333-68.266667z m0 0"  horiz-adv-x="1024" />

    
    <glyph glyph-name="02lianyonghufenxi-fangda" unicode="&#58905;" d="M819.2 445.44h-245.76V691.2h-122.88v-245.76H204.8v-122.88h245.76V76.8h122.88v245.76H819.2z"  horiz-adv-x="1024" />

    
    <glyph glyph-name="01lianmengjiedian-yonghuzongshu" unicode="&#58906;" d="M836.266667 138.24c3.413333-34.133333 6.826667-64.853333 3.413333-85.333333-3.413333-20.48-6.826667-34.133333-13.653333-40.96-3.413333-3.413333-10.24-6.826667-23.893334-6.826667-13.653333-3.413333-27.306667-6.826667-44.373333-10.24-17.066667-3.413333-37.546667-6.826667-58.026667-6.826667h-13.653333c-10.24 0-20.48-3.413333-27.306667-3.413333-17.066667-3.413333-37.546667-3.413333-61.44-3.413333s-51.2-3.413333-81.92-3.413334c-30.72 0-58.026667 0-81.92 3.413334-23.893333 0-44.373333 3.413333-61.44 3.413333-10.24 0-20.48 3.413333-27.306666 3.413333h-13.653334c-20.48 3.413333-40.96 3.413333-58.026666 6.826667s-34.133333 6.826667-44.373334 10.24c-17.066667 3.413333-23.893333 6.826667-27.306666 6.826667-6.826667 3.413333-10.24 17.066667-13.653334 40.96-3.413333 20.48-3.413333 51.2 3.413334 85.333333 3.413333 20.48 10.24 34.133333 23.893333 44.373333 13.653333 10.24 27.306667 20.48 44.373333 23.893334 17.066667 6.826667 37.546667 10.24 54.613334 17.066666 20.48 6.826667 37.546667 13.653333 51.2 20.48 10.24 6.826667 20.48 13.653333 27.306666 20.48 6.826667 6.826667 10.24 13.653333 13.653334 20.48 3.413333 6.826667 3.413333 13.653333 3.413333 20.48v23.893334c0 13.653333-6.826667 23.893333-13.653333 30.72-6.826667 6.826667-17.066667 13.653333-23.893334 20.48-3.413333 3.413333-10.24 10.24-13.653333 17.066666l-10.24 20.48v3.413334c-3.413333 6.826667-3.413333 10.24-3.413333 17.066666v3.413334c-3.413333 0-6.826667 3.413333-10.24 3.413333l-3.413334 3.413333c-3.413333 3.413333-6.826667 10.24-10.24 13.653334-10.24 13.653333-13.653333 20.48-13.653333 30.72v6.826666 17.066667c0 6.826667 3.413333 10.24 6.826667 13.653333 3.413333 3.413333 3.413333 6.826667 6.826666 10.24l3.413334 3.413334c0 20.48 0 44.373333 3.413333 64.853333 0 10.24 3.413333 20.48 6.826667 30.72 0 6.826667 3.413333 13.653333 6.826666 20.48 3.413333 20.48 13.653333 37.546667 23.893334 51.2 3.413333 3.413333 6.826667 6.826667 10.24 13.653333 3.413333 6.826667 10.24 10.24 17.066666 17.066667l10.24 10.24c13.653333 10.24 23.893333 17.066667 37.546667 23.893333 13.653333 6.826667 27.306667 10.24 40.96 10.24 6.826667 0 10.24 0 17.066667 3.413334h40.96c6.826667 0 10.24 0 17.066666-3.413334l40.96-10.24c13.653333-6.826667 27.306667-13.653333 37.546667-23.893333l10.24-10.24c6.826667-6.826667 13.653333-10.24 17.066667-17.066667 3.413333-3.413333 6.826667-6.826667 10.24-13.653333 10.24-13.653333 20.48-34.133333 23.893333-51.2 3.413333-6.826667 3.413333-13.653333 6.826667-20.48 3.413333-10.24 3.413333-20.48 6.826666-30.72 3.413333-20.48 3.413333-44.373333 3.413334-64.853333l3.413333-3.413334c3.413333-3.413333 6.826667-6.826667 6.826667-10.24 3.413333-3.413333 3.413333-6.826667 6.826666-13.653333v-23.893333c0-10.24-3.413333-17.066667-6.826666-23.893334-3.413333-6.826667-6.826667-10.24-10.24-13.653333l-3.413334-3.413333c-3.413333-3.413333-6.826667-3.413333-10.24-3.413334v-3.413333c0-6.826667-3.413333-13.653333-3.413333-17.066667v-3.413333l-10.24-20.48c-3.413333-6.826667-6.826667-13.653333-13.653333-17.066667-6.826667-6.826667-17.066667-13.653333-23.893334-20.48-6.826667-6.826667-13.653333-17.066667-13.653333-30.72v-23.893333c0-6.826667 0-13.653333 3.413333-20.48 3.413333-6.826667 6.826667-13.653333 13.653334-20.48 6.826667-6.826667 13.653333-13.653333 27.306666-20.48 13.653333-10.24 30.72-17.066667 51.2-20.48 20.48-6.826667 37.546667-10.24 54.613334-17.066667s34.133333-13.653333 44.373333-23.893333c-6.826667-13.653333 3.413333-30.72 6.826667-51.2zM334.506667 322.56c0 20.48 6.826667 17.066667-20.48 44.373333-34.133333 34.133333-47.786667 75.093333-51.2 81.92-3.413333 6.826667-54.613333 153.6 27.306666 293.546667-10.24 0-20.48 0-30.72-3.413333-6.826667-3.413333-17.066667-6.826667-27.306666-10.24-10.24-3.413333-20.48-10.24-30.72-17.066667-10.24-10.24-20.48-17.066667-27.306667-30.72-10.24-13.653333-17.066667-27.306667-20.48-44.373333-3.413333-13.653333-6.826667-30.72-10.24-44.373334-3.413333-17.066667-3.413333-34.133333-3.413333-51.2-3.413333-3.413333-6.826667-10.24-6.826667-13.653333-3.413333-3.413333-3.413333-10.24-3.413333-17.066667s0-13.653333 3.413333-20.48c3.413333-6.826667 3.413333-13.653333 6.826667-17.066666 3.413333-3.413333 6.826667-6.826667 6.826666-10.24 3.413333-3.413333 6.826667-3.413333 10.24-3.413334 0-6.826667 3.413333-13.653333 6.826667-20.48 3.413333-6.826667 3.413333-10.24 6.826667-17.066666s6.826667-10.24 10.24-13.653334c6.826667-6.826667 13.653333-10.24 20.48-17.066666 6.826667-6.826667 10.24-13.653333 10.24-23.893334v-20.48c0-6.826667 0-10.24-3.413334-17.066666-3.413333-3.413333-6.826667-6.826667-10.24-13.653334-3.413333-6.826667-10.24-10.24-20.48-17.066666-13.653333-6.826667-23.893333-13.653333-40.96-17.066667-13.653333-3.413333-30.72-10.24-44.373333-13.653333-13.653333-3.413333-23.893333-10.24-34.133333-20.48-10.24-10.24-17.066667-20.48-20.48-37.546667-3.413333-27.306667-3.413333-51.2-3.413334-68.266667 3.413333-17.066667 6.826667-27.306667 10.24-34.133333 3.413333-3.413333 6.826667-3.413333 17.066667-6.826667s20.48-3.413333 37.546667-6.826666c3.413333 0 6.826667 0 10.24-3.413334 0 20.48 0 44.373333 3.413333 71.68 3.413333 20.48 13.653333 54.613333 47.786667 71.68 34.133333 13.653333 98.986667 34.133333 116.053333 44.373334 17.066667 6.826667 54.613333 23.893333 58.026667 44.373333zM986.453333 213.333333c-3.413333 17.066667-10.24 27.306667-20.48 37.546667-10.24 10.24-23.893333 13.653333-37.546666 20.48-13.653333 3.413333-27.306667 10.24-44.373334 13.653333-13.653333 3.413333-27.306667 10.24-40.96 17.066667-10.24 6.826667-17.066667 10.24-20.48 17.066667-3.413333 6.826667-6.826667 10.24-10.24 17.066666-3.413333 6.826667-3.413333 10.24-3.413333 17.066667v20.48c0 10.24 3.413333 17.066667 10.24 23.893333 6.826667 6.826667 13.653333 10.24 20.48 17.066667 3.413333 3.413333 6.826667 6.826667 10.24 13.653333 3.413333 6.826667 6.826667 10.24 6.826667 17.066667 3.413333 6.826667 3.413333 13.653333 6.826666 20.48 3.413333 0 6.826667 3.413333 10.24 3.413333 3.413333 3.413333 3.413333 3.413333 6.826667 10.24 3.413333 3.413333 6.826667 10.24 6.826667 17.066667 3.413333 6.826667 3.413333 13.653333 3.413333 20.48 0 6.826667-3.413333 10.24-3.413333 17.066667-3.413333 6.826667-3.413333 10.24-6.826667 13.653333 0 17.066667 0 34.133333-3.413333 51.2-3.413333 13.653333-3.413333 30.72-10.24 44.373333-3.413333 17.066667-10.24 30.72-20.48 44.373334s-17.066667 23.893333-27.306667 30.72c-10.24 6.826667-20.48 13.653333-30.72 17.066666l-30.72 10.24c-10.24 0-20.48 3.413333-30.72 3.413334 81.92-139.946667 30.72-286.72 27.306667-293.546667-3.413333-6.826667-13.653333-47.786667-51.2-81.92-27.306667-23.893333-20.48-23.893333-20.48-44.373333 0-20.48 40.96-37.546667 51.2-44.373334 17.066667-10.24 81.92-30.72 116.053333-44.373333s44.373333-51.2 47.786667-71.68c3.413333-27.306667 6.826667-51.2 3.413333-71.68 3.413333 0 6.826667 0 10.24 3.413333 13.653333 3.413333 27.306667 3.413333 37.546667 6.826667 10.24 3.413333 17.066667 3.413333 17.066666 6.826667 3.413333 3.413333 6.826667 13.653333 10.24 34.133333 13.653333 10.24 13.653333 34.133333 10.24 64.853333z m0 0"  horiz-adv-x="1024" />

    
    <glyph glyph-name="02lianyonghufenxi-fuwei" unicode="&#58907;" d="M276.48 510.293333H204.8V691.2h180.906667v-71.68H276.48zM293.546667 493.226667H187.733333V708.266667h215.04v-105.813334H293.546667v-109.226666z m-71.68 34.133333h37.546666V636.586667h109.226667V674.133333H221.866667v-146.773333zM819.2 510.293333h-71.68V619.52h-109.226667V691.2H819.2zM836.266667 493.226667h-105.813334V602.453333h-109.226666V708.266667h215.04v-215.04z m-71.68 34.133333h37.546666V674.133333h-146.773333v-37.546666h109.226667v-109.226667zM385.706667 76.8H204.8v180.906667h71.68v-109.226667h109.226667zM402.773333 59.733333H187.733333v215.04h105.813334v-109.226666h109.226666v-105.813334z m-180.906666 34.133334h146.773333v37.546666H259.413333v109.226667H221.866667v-146.773333zM819.2 76.8h-180.906667v71.68h109.226667v109.226667H819.2zM836.266667 59.733333h-215.04v105.813334h109.226666v109.226666h105.813334v-215.04z m-180.906667 34.133334h146.773333v146.773333h-37.546666v-109.226667h-109.226667v-37.546666zM423.253333 472.746667h177.493334v-177.493334h-177.493334zM617.813333 278.186667h-211.626666v211.626666h211.626666v-211.626666z m-177.493333 34.133333h143.36v143.36h-143.36v-143.36z"  horiz-adv-x="1024" />

    
    <glyph glyph-name="02lianyonghufenxi-gongju" unicode="&#58908;" d="M921.6 411.306667v-68.266667c0-3.413333-3.413333-10.24-3.413333-13.653333-20.48-160.426667-139.946667-296.96-296.96-341.333334-20.48-6.826667-44.373333-10.24-68.266667-13.653333h-81.92c-6.826667 0-10.24 3.413333-17.066667 3.413333-167.253333 27.306667-279.893333 122.88-334.506666 286.72-6.826667 23.893333-10.24 51.2-17.066667 78.506667v88.746667c0 3.413333 3.413333 6.826667 3.413333 10.24 30.72 170.666667 129.706667 283.306667 296.96 334.506666 20.48 6.826667 44.373333 10.24 68.266667 13.653334h81.92c6.826667 0 10.24-3.413333 17.066667-3.413334 160.426667-20.48 293.546667-139.946667 337.92-293.546666 3.413333-23.893333 6.826667-54.613333 13.653333-81.92z m-508.586667-78.506667c-3.413333 0-3.413333-3.413333-6.826666-3.413333-13.653333 13.653333-23.893333 30.72-37.546667 40.96-10.24 6.826667-23.893333 10.24-34.133333 10.24-17.066667 0-27.306667-10.24-30.72-27.306667-6.826667-17.066667 0-30.72 13.653333-44.373333l139.946667-139.946667c44.373333-40.96 95.573333-54.613333 153.6-37.546667 61.44 17.066667 102.4 58.026667 112.64 119.466667 6.826667 54.613333 3.413333 112.64 0 167.253333-3.413333 34.133333-40.96 44.373333-64.853334 20.48-3.413333-3.413333-3.413333-6.826667-6.826666-10.24-3.413333 0-3.413333 0-6.826667 3.413334 0 23.893333 3.413333 54.613333-27.306667 64.853333-20.48 6.826667-34.133333-3.413333-47.786666-20.48 0 23.893333-6.826667 40.96-27.306667 47.786667-20.48 6.826667-37.546667-3.413333-51.2-23.893334V592.213333c0 30.72-17.066667 47.786667-37.546667 47.786667-23.893333 0-37.546667-17.066667-37.546666-47.786667v-232.106666c-3.413333-10.24-3.413333-17.066667-3.413334-27.306667z"  horiz-adv-x="1024" />

    
    <glyph glyph-name="02lianyonghufenxi-huafang" unicode="&#58909;" d="M232.106667 663.893333v-559.786666h559.786666V663.893333H232.106667zM170.666667 725.333333h682.666666v-682.666666H170.666667V725.333333z m0 0"  horiz-adv-x="1024" />

    
    <glyph glyph-name="02lianyonghufenxi-huaquan" unicode="&#58910;" d="M512 66.56c174.08 0 317.44 139.946667 317.44 317.44 0 174.08-143.36 317.44-317.44 317.44-174.08 0-317.44-139.946667-317.44-317.44 0-174.08 143.36-317.44 317.44-317.44z m0-58.026667C303.786667 8.533333 136.533333 175.786667 136.533333 384S303.786667 759.466667 512 759.466667s375.466667-167.253333 375.466667-375.466667-167.253333-375.466667-375.466667-375.466667z m0 0"  horiz-adv-x="1024" />

    
    <glyph glyph-name="02lianyonghufenxi-lianmengyonghushu" unicode="&#58911;" d="M764.586667 199.68c3.413333-27.306667 3.413333-47.786667 3.413333-64.853333-3.413333-17.066667-6.826667-27.306667-10.24-30.72-3.413333-3.413333-6.826667-3.413333-17.066667-6.826667s-20.48-3.413333-34.133333-6.826667-30.72-3.413333-47.786667-6.826666H648.533333c-6.826667 0-13.653333-3.413333-23.893333-3.413334-13.653333 0-27.306667-3.413333-47.786667-3.413333h-129.706666c-20.48 0-34.133333 3.413333-47.786667 3.413333-6.826667 0-13.653333 3.413333-23.893333 3.413334h-10.24c-17.066667 3.413333-30.72 3.413333-47.786667 6.826666-13.653333 3.413333-27.306667 3.413333-34.133333 6.826667-10.24 3.413333-17.066667 3.413333-17.066667 6.826667-3.413333 3.413333-6.826667 13.653333-10.24 30.72-3.413333 17.066667 0 37.546667 3.413333 64.853333 3.413333 13.653333 10.24 27.306667 20.48 34.133333 10.24 6.826667 23.893333 13.653333 37.546667 17.066667 13.653333 3.413333 27.306667 10.24 44.373333 13.653333 13.653333 3.413333 27.306667 10.24 40.96 17.066667 10.24 6.826667 17.066667 10.24 20.48 13.653333 3.413333 3.413333 6.826667 10.24 10.24 13.653334 3.413333 3.413333 3.413333 10.24 3.413334 17.066666v17.066667c0 10.24-3.413333 17.066667-10.24 23.893333-6.826667 6.826667-13.653333 10.24-20.48 17.066667-3.413333 3.413333-6.826667 6.826667-10.24 13.653333-3.413333 6.826667-6.826667 10.24-6.826667 13.653334v3.413333c0 3.413333-3.413333 6.826667-3.413333 13.653333v3.413334c-3.413333 0-6.826667 3.413333-6.826667 3.413333l-3.413333 3.413333-10.24 10.24c-3.413333 3.413333-3.413333 10.24-6.826667 17.066667v6.826667 13.653333c0 3.413333 3.413333 6.826667 3.413333 10.24 0 3.413333 3.413333 3.413333 6.826667 6.826667 0 17.066667 0 34.133333 3.413333 47.786666 0 6.826667 3.413333 17.066667 3.413334 23.893334 0 6.826667 3.413333 10.24 3.413333 17.066666 3.413333 13.653333 10.24 27.306667 20.48 37.546667 3.413333 3.413333 3.413333 6.826667 6.826667 10.24 3.413333 3.413333 6.826667 10.24 13.653333 13.653333 3.413333 3.413333 6.826667 3.413333 6.826667 6.826667 10.24 6.826667 20.48 13.653333 30.72 17.066667 10.24 3.413333 20.48 6.826667 30.72 6.826666H549.546667c10.24 0 20.48-3.413333 30.72-6.826666 10.24-3.413333 20.48-10.24 30.72-17.066667 3.413333-3.413333 6.826667-3.413333 6.826666-6.826667 6.826667-3.413333 10.24-10.24 13.653334-13.653333 3.413333-3.413333 3.413333-6.826667 6.826666-10.24 3.413333-6.826667 10.24-20.48 13.653334-34.133333 0-6.826667 3.413333-10.24 3.413333-17.066667 3.413333-6.826667 3.413333-17.066667 3.413333-23.893333 3.413333-17.066667 3.413333-30.72 3.413334-47.786667l6.826666-6.826667c3.413333-3.413333 3.413333-6.826667 3.413334-10.24V469.333333c0-6.826667-3.413333-13.653333-6.826667-17.066666-3.413333-3.413333-6.826667-10.24-10.24-10.24l-3.413333-3.413334c-3.413333 0-3.413333-3.413333-6.826667-3.413333v-3.413333c0-3.413333-3.413333-10.24-3.413333-13.653334v-3.413333c-3.413333-3.413333-3.413333-10.24-6.826667-13.653333-3.413333-6.826667-6.826667-10.24-10.24-13.653334-6.826667-6.826667-13.653333-10.24-20.48-17.066666-6.826667-6.826667-10.24-13.653333-10.24-23.893334v-17.066666c0-3.413333 0-10.24 3.413333-17.066667 3.413333-3.413333 6.826667-10.24 10.24-13.653333 3.413333-3.413333 10.24-10.24 20.48-13.653334 10.24-6.826667 23.893333-13.653333 40.96-17.066666 13.653333-3.413333 30.72-6.826667 44.373334-13.653334 13.653333-3.413333 27.306667-10.24 37.546666-17.066666 6.826667-10.24 13.653333-23.893333 13.653334-37.546667z m-392.533334 136.533333c0 17.066667 6.826667 13.653333-17.066666 34.133334-27.306667 23.893333-37.546667 54.613333-40.96 61.44 0 6.826667-40.96 116.053333 27.306666 221.866666-6.826667 0-13.653333 0-23.893333-3.413333-10.24 0-17.066667-3.413333-27.306667-6.826667-6.826667-3.413333-13.653333-6.826667-23.893333-13.653333-6.826667-6.826667-13.653333-13.653333-20.48-23.893333-6.826667-6.826667-13.653333-20.48-17.066667-30.72-3.413333-13.653333-6.826667-23.893333-6.826666-34.133334 0-13.653333-3.413333-23.893333-3.413334-37.546666-3.413333-3.413333-3.413333-6.826667-6.826666-10.24 0-3.413333-3.413333-6.826667-3.413334-13.653334 0-3.413333 0-10.24 3.413334-17.066666s3.413333-10.24 6.826666-13.653334c3.413333-3.413333 3.413333-6.826667 6.826667-6.826666s3.413333-3.413333 6.826667-3.413334c0-6.826667 3.413333-10.24 3.413333-17.066666 0-3.413333 3.413333-6.826667 6.826667-13.653334 3.413333-3.413333 3.413333-6.826667 6.826666-10.24 6.826667-3.413333 10.24-10.24 13.653334-13.653333 6.826667 0 10.24-3.413333 10.24-13.653333v-13.653334c0-3.413333 0-10.24-3.413334-13.653333 0-3.413333-3.413333-6.826667-6.826666-10.24-3.413333-3.413333-10.24-6.826667-17.066667-13.653333-6.826667-3.413333-17.066667-6.826667-27.306667-10.24-10.24-3.413333-23.893333-6.826667-34.133333-10.24-13.653333-3.413333-20.48-10.24-30.72-17.066667-6.826667-6.826667-13.653333-17.066667-13.653333-27.306667-3.413333-20.48-3.413333-37.546667-3.413334-51.2 3.413333-13.653333 3.413333-20.48 6.826667-23.893333 3.413333 0 6.826667-3.413333 13.653333-3.413333 6.826667-3.413333 17.066667-3.413333 27.306667-6.826667h10.24c0 13.653333 0 30.72 3.413333 51.2 6.826667 13.653333 13.653333 40.96 40.96 51.2 27.306667 10.24 78.506667 27.306667 92.16 34.133333 10.24 3.413333 40.96 17.066667 40.96 30.72z m512-81.92c-3.413333 13.653333-6.826667 20.48-13.653333 27.306667-6.826667 6.826667-17.066667 10.24-27.306667 13.653333-10.24 3.413333-23.893333 6.826667-34.133333 10.24-10.24 3.413333-23.893333 6.826667-30.72 13.653334-6.826667 3.413333-13.653333 10.24-17.066667 13.653333-3.413333 3.413333-6.826667 6.826667-6.826666 10.24 0 3.413333-3.413333 6.826667-3.413334 13.653333v13.653334c0 6.826667 3.413333 13.653333 6.826667 17.066666l13.653333 13.653334c3.413333 3.413333 6.826667 6.826667 6.826667 10.24 3.413333 3.413333 3.413333 10.24 6.826667 13.653333 3.413333 3.413333 3.413333 10.24 3.413333 17.066667 3.413333 0 3.413333 3.413333 6.826667 3.413333s3.413333 3.413333 6.826666 6.826667 3.413333 6.826667 6.826667 13.653333 3.413333 10.24 3.413333 17.066667c0 3.413333 0 10.24-3.413333 13.653333 0 3.413333-3.413333 6.826667-6.826667 10.24 0 13.653333 0 23.893333-3.413333 37.546667 0 10.24-3.413333 20.48-6.826667 34.133333s-6.826667 23.893333-17.066666 34.133333c-6.826667 10.24-13.653333 17.066667-20.48 23.893334-6.826667 6.826667-17.066667 10.24-23.893334 13.653333-6.826667 3.413333-17.066667 6.826667-23.893333 6.826667-6.826667 0-17.066667 3.413333-23.893333 3.413333 64.853333-105.813333 23.893333-215.04 23.893333-221.866667-3.413333-3.413333-10.24-37.546667-40.96-61.44-20.48-20.48-17.066667-17.066667-17.066667-34.133333s30.72-27.306667 40.96-34.133333c13.653333-6.826667 64.853333-23.893333 92.16-34.133334 27.306667-10.24 34.133333-37.546667 37.546667-54.613333 3.413333-20.48 3.413333-37.546667 3.413333-51.2h10.24c10.24 0 20.48 3.413333 27.306667 6.826667 6.826667 3.413333 13.653333 3.413333 13.653333 3.413333 3.413333 3.413333 6.826667 10.24 6.826667 23.893333 6.826667 13.653333 6.826667 30.72 3.413333 51.2z m0 0"  horiz-adv-x="1024" />

    
    <glyph glyph-name="02lianyonghufenxi-lvyuegongshi" unicode="&#58912;" d="M662.186667 551.253333V486.4c0-10.24-6.826667-13.653333-13.653334-13.653333h-266.24c-6.826667 0-13.653333 6.826667-13.653333 13.653333v61.44c0 10.24-6.826667 13.653333-13.653333 13.653333H341.333333c-23.893333 0-34.133333-13.653333-34.133333-30.72v-348.16c0-17.066667 17.066667-37.546667 37.546667-37.546666h334.506666c17.066667 0 37.546667 20.48 37.546667 37.546666V530.773333c0 17.066667-13.653333 30.72-34.133333 30.72h-6.826667c-6.826667 3.413333-13.653333-3.413333-13.653333-10.24z m0-153.6L501.76 213.333333c-3.413333-3.413333-13.653333-3.413333-20.48 0L375.466667 302.08s-3.413333 3.413333 0 6.826667l20.48 23.893333h6.826666l85.333334-68.266667h10.24l133.12 160.426667c0 3.413333 3.413333 3.413333 6.826666 0l23.893334-20.48c3.413333 0 3.413333 0 0-6.826667z m-64.853334 184.32c-6.826667 0-13.653333 6.826667-13.653333 13.653334 0 13.653333-13.653333 27.306667-27.306667 27.306666h-85.333333c-17.066667 0-27.306667-13.653333-27.306667-27.306666 0-10.24-6.826667-13.653333-13.653333-13.653334h-10.24c-6.826667 0-13.653333-6.826667-13.653333-13.653333v-44.373333c0-10.24 6.826667-13.653333 13.653333-13.653334h187.733333c6.826667 0 13.653333 6.826667 13.653334 13.653334V568.32c0 10.24-6.826667 13.653333-13.653334 13.653333h-10.24z m-81.92-47.786666c-17.066667 0-30.72 13.653333-30.72 30.72s13.653333 30.72 30.72 30.72 30.72-13.653333 30.72-30.72-13.653333-30.72-30.72-30.72z m0 0"  horiz-adv-x="1024" />

    
    <glyph glyph-name="02lianyonghufenxi-shanglianshijian" unicode="&#58913;" d="M798.72 595.626667c-13.653333 20.48-34.133333 30.72-58.026667 30.72h-17.066666V670.72c0 10.24-10.24 20.48-20.48 20.48s-20.48-10.24-20.48-20.48v-44.373333h40.96v-51.2c0-10.24-10.24-20.48-20.48-20.48s-20.48 10.24-20.48 20.48V626.346667h-334.506667V670.72c0 10.24-10.24 20.48-20.48 20.48s-20.48-10.24-20.48-20.48v-44.373333h40.96v-51.2c0-10.24-10.24-20.48-20.48-20.48-13.653333 0-20.48 10.24-20.48 20.48V626.346667h-13.653333c-13.653333 0-27.306667-3.413333-40.96-10.24-6.826667-3.413333-10.24-6.826667-17.066667-10.24-20.48-17.066667-30.72-37.546667-30.72-61.44V162.133333c0-23.893333 10.24-44.373333 27.306667-61.44 6.826667-6.826667 17.066667-10.24 27.306666-17.066666 13.653333-3.413333 27.306667-6.826667 37.546667-6.826667h440.32c23.893333 0 44.373333 10.24 58.026667 30.72 13.653333 17.066667 20.48 37.546667 20.48 61.44v136.533333 232.106667c3.413333 20.48-3.413333 40.96-17.066667 58.026667zM382.293333 209.92c0-6.826667-10.24-13.653333-20.48-13.653333H310.613333c-13.653333 0-20.48 6.826667-20.48 13.653333v34.133333c0 6.826667 10.24 13.653333 20.48 13.653334h47.786667c13.653333 0 20.48-6.826667 20.48-13.653334v-34.133333z m0 119.466667c0-6.826667-10.24-13.653333-20.48-13.653334H310.613333c-13.653333 0-20.48 6.826667-20.48 13.653334v34.133333c0 6.826667 10.24 13.653333 20.48 13.653333h47.786667c13.653333 0 20.48-6.826667 20.48-13.653333v-34.133333z m170.666667-119.466667c0-6.826667-10.24-13.653333-20.48-13.653333h-47.786667c-13.653333 0-20.48 6.826667-20.48 13.653333v34.133333c0 6.826667 10.24 13.653333 20.48 13.653334h47.786667c13.653333 0 20.48-6.826667 20.48-13.653334v-34.133333z m0 119.466667c0-6.826667-10.24-13.653333-20.48-13.653334h-47.786667c-13.653333 0-20.48 6.826667-20.48 13.653334v34.133333c0 6.826667 10.24 13.653333 20.48 13.653333h47.786667c13.653333 0 20.48-6.826667 20.48-13.653333v-34.133333z m177.493333-119.466667c0-6.826667-10.24-13.653333-20.48-13.653333h-47.786666c-13.653333 0-20.48 6.826667-20.48 13.653333v34.133333c0 6.826667 10.24 13.653333 20.48 13.653334h47.786666c13.653333 0 20.48-6.826667 20.48-13.653334v-34.133333z m0 119.466667c0-6.826667-10.24-13.653333-20.48-13.653334h-47.786666c-13.653333 0-20.48 6.826667-20.48 13.653334v34.133333c0 6.826667 10.24 13.653333 20.48 13.653333h47.786666c13.653333 0 20.48-6.826667 20.48-13.653333v-34.133333z m-13.653333 119.466666H307.2c-10.24 0-20.48 10.24-20.48 20.48s10.24 20.48 20.48 20.48h409.6c10.24 0 20.48-10.24 20.48-20.48s-10.24-20.48-20.48-20.48z m0 0"  horiz-adv-x="1024" />

    
    <glyph glyph-name="02lianyonghufenxi-qingchu" unicode="&#58914;" d="M515.413333 759.466667c-75.093333 0-136.533333-61.44-136.533333-136.533334H204.8c-17.066667 0-34.133333-17.066667-34.133333-37.546666 0-20.48 17.066667-37.546667 34.133333-37.546667h37.546667V145.066667c0-75.093333 51.2-136.533333 112.64-136.533334h314.026666c61.44 0 112.64 61.44 112.64 136.533334V551.253333h34.133334c20.48 0 34.133333 17.066667 34.133333 37.546667 3.413333 17.066667-13.653333 34.133333-30.72 34.133333h-163.84c-3.413333 75.093333-64.853333 136.533333-139.946667 136.533334zM443.733333 622.933333c3.413333 37.546667 34.133333 68.266667 71.68 68.266667s68.266667-30.72 71.68-68.266667H443.733333z m-88.746666-546.133333c-20.48 0-44.373333 27.306667-44.373334 71.68V551.253333H716.8V145.066667c0-40.96-23.893333-71.68-44.373333-71.68l-317.44 3.413333z m0 0M402.773333 162.133333c17.066667 0 30.72 17.066667 30.72 37.546667v211.626667c0 20.48-13.653333 37.546667-30.72 37.546666s-30.72-17.066667-30.72-37.546666v-211.626667c3.413333-20.48 13.653333-37.546667 30.72-37.546667z m105.813334 0c17.066667 0 30.72 17.066667 30.72 37.546667v211.626667c0 20.48-13.653333 37.546667-30.72 37.546666s-30.72-17.066667-30.72-37.546666v-211.626667c3.413333-20.48 13.653333-37.546667 30.72-37.546667z m112.64 0c17.066667 0 30.72 17.066667 30.72 37.546667v211.626667c0 20.48-13.653333 37.546667-30.72 37.546666s-30.72-17.066667-30.72-37.546666v-211.626667c0-20.48 13.653333-37.546667 30.72-37.546667z m0 0"  horiz-adv-x="1024" />

    
    <glyph glyph-name="02lianyonghufenxi-suoxiao" unicode="&#58915;" d="M204.8 445.44h614.4v-122.88H204.8v122.88z"  horiz-adv-x="1024" />

    
    <glyph glyph-name="02lianyonghufenxi-shanglianshuju" unicode="&#58916;" d="M713.386667 462.506667c20.48 0 37.546667-17.066667 37.546666-40.96v-269.653334c0-23.893333-17.066667-40.96-37.546666-40.96h-51.2c-20.48 0-37.546667 17.066667-37.546667 40.96v269.653334c0 23.893333 17.066667 40.96 37.546667 40.96h51.2z m-348.16-54.613334c20.48 0 37.546667-17.066667 37.546666-40.96v-215.04c0-23.893333-17.066667-40.96-37.546666-40.96H317.44c-20.48 0-37.546667 17.066667-37.546667 40.96v215.04c0 23.893333 17.066667 40.96 37.546667 40.96h47.786667z m174.08-54.613333c20.48 0 37.546667-17.066667 37.546666-40.96v-160.426667c0-23.893333-17.066667-40.96-37.546666-40.96h-51.2c-20.48 0-37.546667 17.066667-37.546667 40.96v160.426667c0 23.893333 17.066667 40.96 37.546667 40.96h51.2z m129.706666 262.826667h-30.72c-10.24 0-17.066667 10.24-17.066666 20.48s6.826667 20.48 17.066666 20.48h75.093334c3.413333 0 10.24-3.413333 13.653333-6.826667 3.413333-3.413333 3.413333-3.413333 3.413333-6.826667V554.666667c0-10.24-6.826667-20.48-17.066666-20.48s-17.066667 10.24-17.066667 20.48V588.8l-167.253333-180.906667c-6.826667-6.826667-13.653333-6.826667-20.48-3.413333l-221.866667 109.226667c-13.653333 0-17.066667 13.653333-13.653333 23.893333 3.413333 10.24 13.653333 13.653333 23.893333 10.24l211.626667-102.4 160.426666 170.666667z m0 0"  horiz-adv-x="1024" />

    
    <glyph glyph-name="03heyuefabu-fabufang" unicode="&#58917;" d="M819.2 206.506667c-3.413333-71.68-64.853333-126.293333-139.946667-126.293334h-331.093333c-75.093333 0-136.533333 58.026667-139.946667 126.293334V561.493333c0 71.68 61.44 129.706667 136.533334 129.706667h279.893333l-61.44-47.786667h-218.453333c-47.786667 0-88.746667-37.546667-88.746667-85.333333V213.333333c0-47.786667 40.96-85.333333 88.746667-85.333333h331.093333c47.786667 0 88.746667 37.546667 88.746667 85.333333v238.933334l51.2 47.786666 3.413333-293.546666zM641.706667 418.133333l-37.546667-34.133333c-13.653333-13.653333-44.373333-40.96-54.613333-51.2l-23.893334-23.893333-10.24-10.24-10.24-10.24c-3.413333-3.413333-6.826667-6.826667-13.653333-6.826667-3.413333-3.413333-10.24-3.413333-20.48-6.826667-6.826667-3.413333-17.066667-6.826667-27.306667-10.24-10.24-3.413333-17.066667-6.826667-27.306666-6.826666-6.826667-3.413333-13.653333-3.413333-17.066667-3.413334-6.826667 0-13.653333 0-17.066667 3.413334-3.413333 3.413333-3.413333 10.24-3.413333 17.066666 0 3.413333 3.413333 10.24 3.413333 17.066667 3.413333 6.826667 3.413333 17.066667 6.826667 23.893333 3.413333 10.24 6.826667 17.066667 6.826667 23.893334 3.413333 6.826667 3.413333 13.653333 6.826666 13.653333 3.413333 3.413333 3.413333 6.826667 6.826667 10.24l10.24 10.24 13.653333 13.653333 44.373334 44.373334 34.133333 34.133333 37.546667 37.546667 95.573333 95.573333 88.746667-85.333333-92.16-95.573334z m157.013333 157.013334l-13.653333-13.653334-10.24-10.24c-3.413333-3.413333-6.826667-6.826667-10.24-6.826666L682.666667 633.173333c3.413333 3.413333 10.24 10.24 17.066666 13.653334 6.826667 6.826667 10.24 10.24 17.066667 13.653333 6.826667 3.413333 10.24 6.826667 17.066667 10.24 6.826667 0 10.24 3.413333 17.066666 3.413333h6.826667c10.24-3.413333 23.893333-6.826667 34.133333-17.066666 6.826667-6.826667 10.24-10.24 13.653334-17.066667 3.413333-10.24 6.826667-17.066667 6.826666-27.306667v-3.413333c0-3.413333 0-10.24-3.413333-13.653333-3.413333-10.24-6.826667-13.653333-10.24-20.48"  horiz-adv-x="1024" />

    
    <glyph glyph-name="03heyuefabu-shangsheng" unicode="&#58918;" d="M512 786.773333L102.4 407.893333h252.586667v-426.666666h314.026666V407.893333H921.6L512 786.773333z"  horiz-adv-x="1024" />

    
    <glyph glyph-name="03heyuefabu-shanchu" unicode="&#58919;" d="M515.413333 759.466667c-75.093333 0-136.533333-61.44-136.533333-136.533334H204.8c-17.066667 0-34.133333-17.066667-34.133333-37.546666 0-20.48 17.066667-37.546667 34.133333-37.546667h37.546667V145.066667c0-75.093333 51.2-136.533333 112.64-136.533334h314.026666c61.44 0 112.64 61.44 112.64 136.533334V551.253333h34.133334c20.48 0 34.133333 17.066667 34.133333 37.546667 3.413333 17.066667-13.653333 34.133333-30.72 34.133333h-163.84c-3.413333 75.093333-64.853333 136.533333-139.946667 136.533334zM443.733333 622.933333c3.413333 37.546667 34.133333 68.266667 71.68 68.266667s68.266667-30.72 71.68-68.266667H443.733333z m-88.746666-546.133333c-20.48 0-44.373333 27.306667-44.373334 71.68V551.253333H716.8V145.066667c0-40.96-23.893333-71.68-44.373333-71.68l-317.44 3.413333z m0 0M402.773333 162.133333c17.066667 0 30.72 17.066667 30.72 37.546667v211.626667c0 20.48-13.653333 37.546667-30.72 37.546666s-30.72-17.066667-30.72-37.546666v-211.626667c3.413333-20.48 13.653333-37.546667 30.72-37.546667z m105.813334 0c17.066667 0 30.72 17.066667 30.72 37.546667v211.626667c0 20.48-13.653333 37.546667-30.72 37.546666s-30.72-17.066667-30.72-37.546666v-211.626667c3.413333-20.48 13.653333-37.546667 30.72-37.546667z m112.64 0c17.066667 0 30.72 17.066667 30.72 37.546667v211.626667c0 20.48-13.653333 37.546667-30.72 37.546666s-30.72-17.066667-30.72-37.546666v-211.626667c0-20.48 13.653333-37.546667 30.72-37.546667z m0 0"  horiz-adv-x="1024" />

    
    <glyph glyph-name="03heyuefabu-xinzeng" unicode="&#58920;" d="M512 793.6C286.72 793.6 102.4 609.28 102.4 384s184.32-409.6 409.6-409.6 409.6 184.32 409.6 409.6S737.28 793.6 512 793.6m245.76-409.6c0-30.72-27.306667-58.026667-58.026667-58.026667h-129.706666v-129.706666c0-30.72-27.306667-58.026667-58.026667-58.026667-30.72 0-58.026667 27.306667-58.026667 58.026667v129.706666H324.266667c-30.72 0-58.026667 27.306667-58.026667 58.026667 0 30.72 27.306667 58.026667 58.026667 58.026667h129.706666V571.733333c0 30.72 27.306667 58.026667 58.026667 58.026667 30.72 0 58.026667-27.306667 58.026667-58.026667v-129.706666h129.706666c30.72 0 58.026667-27.306667 58.026667-58.026667"  horiz-adv-x="1024" />

    
    <glyph glyph-name="04heyueguanli-qukuaigaodu" unicode="&#58921;" d="M382.293333 288.426667l23.893334 13.653333 88.746666-51.2v122.88L477.866667 384l-88.746667 51.2v-102.4l-20.48-10.24-75.093333 40.96L204.8 315.733333v-102.4l88.746667-51.2 88.746666 51.2v75.093334z m273.066667 34.133333l-17.066667 10.24v102.4l-105.813333-61.44v-122.88l88.746667 51.2 23.893333-13.653333V213.333333l88.746667-51.2L819.2 213.333333v102.4l-88.746667 51.2-75.093333-44.373333z m0 320.853333v-81.92l95.573333-51.2V418.133333l10.24-6.826666 61.44-34.133334V554.666667l-167.253333 88.746666z m-54.613333-467.626666L512 128l-88.746667 47.786667-13.653333-6.826667-58.026667-30.72 160.426667-88.746667 160.426667 88.746667-58.026667 30.72-13.653333 6.826667zM276.48 418.133333v92.16l95.573333 51.2V643.413333L204.8 551.253333v-177.493333l61.44 34.133333 10.24 10.24z m129.706667 47.786667l105.813333-61.44 17.066667 10.24 88.746666 51.2-88.746666 51.2v13.653333l71.68 40.96v102.4L512 721.92l-88.746667-51.2v-102.4l71.68-40.96v-13.653333l-88.746666-47.786667z m0 0"  horiz-adv-x="1024" />

    
    <glyph glyph-name="04heyueguanli-jiaoyicishu" unicode="&#58922;" d="M436.906667 544.426667c122.88 0 225.28 30.72 225.28 71.68 0 40.96-102.4 71.68-225.28 71.68C310.613333 691.2 211.626667 657.066667 211.626667 616.106667c0-37.546667 98.986667-71.68 225.28-71.68z m0-139.946667c23.893333 0 51.2 3.413333 71.68 3.413333 37.546667 30.72 81.92 47.786667 129.706666 47.786667 17.066667 13.653333 23.893333 27.306667 23.893334 44.373333v68.266667c0 6.826667-3.413333 17.066667-6.826667 23.893333-3.413333-37.546667-102.4-71.68-225.28-71.68C307.2 520.533333 211.626667 551.253333 204.8 592.213333c3.413333-6.826667 0-13.653333 0-20.48v-68.266666c0-54.613333 102.4-98.986667 232.106667-98.986667z m0-136.533333c3.413333 44.373333 20.48 85.333333 47.786666 116.053333h-47.786666c-109.226667 0-197.973333 30.72-225.28 71.68-3.413333-6.826667-6.826667-17.066667-6.826667-23.893333v-68.266667c0-54.613333 102.4-95.573333 232.106667-95.573333z m204.8 163.84c-98.986667 0-177.493333-81.92-177.493334-177.493334 0-98.986667 81.92-177.493333 177.493334-177.493333 98.986667 0 177.493333 81.92 177.493333 177.493333 3.413333 98.986667-78.506667 177.493333-177.493333 177.493334z m105.813333-129.706667l-119.466667-133.12c-3.413333-3.413333-10.24-6.826667-17.066666-6.826667s-10.24 3.413333-17.066667 6.826667l-64.853333 75.093333c-3.413333 3.413333-6.826667 10.24-6.826667 17.066667 0 13.653333 10.24 23.893333 23.893333 23.893333 6.826667 0 10.24-3.413333 17.066667-6.826666l51.2-58.026667 102.4 116.053333c3.413333 3.413333 10.24 6.826667 17.066667 6.826667 10.24 0 23.893333-10.24 23.893333-23.893333-3.413333-3.413333-3.413333-10.24-10.24-17.066667z m-310.613333-61.44c-109.226667 0-197.973333 30.72-225.28 71.68-3.413333-3.413333-6.826667-13.653333-6.826667-20.48v-68.266667c0-51.2 102.4-95.573333 232.106667-95.573333 17.066667 0 30.72 0 44.373333 3.413333-27.306667 27.306667-40.96 64.853333-44.373333 109.226667z m0 0"  horiz-adv-x="1024" />

    
    <glyph glyph-name="01lianmengjiedian-qianyue" unicode="&#58923;" d="M552.96 158.72c0-5.12-5.12-5.12-5.12-10.24-10.24-15.36-20.48-35.84-25.6-51.2-10.24-25.6-5.12-51.2 20.48-61.44 46.08-15.36 102.4-15.36 148.48 5.12 10.24 5.12 15.36 5.12 46.08 15.36 20.48 10.24 46.08 15.36 71.68 25.6h5.12c15.36 5.12 10.24 10.24 25.6 0 5.12-5.12 10.24-5.12 20.48-5.12 5.12 0 5.12 5.12 10.24 10.24s5.12 10.24 5.12 20.48c0 5.12-5.12 10.24-10.24 15.36-25.6 15.36-30.72 15.36-56.32 10.24h-5.12c-25.6-5.12-51.2-15.36-76.8-25.6-30.72-10.24-35.84-15.36-46.08-15.36-35.84-15.36-71.68-15.36-107.52-10.24 5.12 15.36 15.36 30.72 20.48 46.08 0 5.12 5.12 5.12 5.12 10.24 10.24 20.48 20.48 40.96 25.6 61.44 5.12 15.36 0 25.6-5.12 35.84-5.12 10.24-20.48 20.48-30.72 20.48-35.84 10.24-81.92-5.12-204.8-51.2-112.64-46.08-163.84-56.32-179.2-51.2-5.12 5.12-10.24 5.12-20.48 0s-15.36-10.24-20.48-20.48c0-10.24 5.12-20.48 10.24-25.6 30.72-10.24 66.56-10.24 97.28 5.12 40.96 10.24 81.92 25.6 122.88 46.08 107.52 40.96 153.6 56.32 174.08 51.2 5.12 0 5.12 0 5.12-5.12-5.12-15.36-10.24-30.72-20.48-46.08z m128 568.32c-25.6 25.6-66.56 25.6-92.16 0L189.44 332.8c-5.12-5.12-5.12-5.12-5.12-10.24L153.6 209.92c0-10.24 0-20.48 5.12-25.6 10.24-5.12 20.48-5.12 30.72-5.12l97.28 40.96c5.12 5.12 15.36 10.24 20.48 15.36l389.12 373.76 5.12 5.12c10.24 15.36 20.48 30.72 20.48 51.2s-10.24 35.84-20.48 46.08l-20.48 15.36z m0 0"  horiz-adv-x="1024" />

    
    <glyph glyph-name="04heyueguanli-shujuguifan" unicode="&#58924;" d="M283.306667 76.8C242.346667 76.8 204.8 114.346667 204.8 155.306667v259.413333c0 44.373333 37.546667 78.506667 78.506667 78.506667 44.373333 0 78.506667-37.546667 78.506666-78.506667v-259.413333c3.413333-40.96-34.133333-78.506667-78.506666-78.506667z m228.693333 0c-44.373333 0-78.506667 37.546667-78.506667 78.506667V612.693333c0 40.96 34.133333 78.506667 78.506667 78.506667 44.373333 0 78.506667-37.546667 78.506667-78.506667v-453.973333c0-44.373333-34.133333-81.92-78.506667-81.92z m228.693333 0c-44.373333 0-78.506667 37.546667-78.506666 78.506667v119.466666c0 44.373333 37.546667 78.506667 78.506666 78.506667 44.373333 0 78.506667-37.546667 78.506667-78.506667v-119.466666c0-40.96-37.546667-78.506667-78.506667-78.506667z m0 0"  horiz-adv-x="1024" />

    
    <glyph glyph-name="04heyueguanli-ziliaobeian" unicode="&#58925;" d="M730.453333 670.72h-20.48c-13.653333 0-20.48-10.24-20.48-20.48H614.4c-6.826667-44.373333-47.786667-44.373333-47.786667-44.373333h-119.466666c-30.72 0-47.786667 13.653333-58.026667 44.373333H337.92c0 13.653333-10.24 20.48-20.48 20.48h-23.893333C245.76 670.72 204.8 629.76 204.8 581.973333v-416.426666C204.8 117.76 245.76 76.8 293.546667 76.8h440.32c47.786667 0 88.746667 40.96 88.746666 88.746667V581.973333c-3.413333 47.786667-44.373333 88.746667-92.16 88.746667zM658.773333 479.573333h-286.72c-17.066667 0-30.72 13.653333-30.72 30.72s13.653333 30.72 30.72 30.72h286.72c17.066667 0 30.72-13.653333 30.72-30.72s-13.653333-30.72-30.72-30.72z m0-126.293333h-286.72c-17.066667 0-30.72 13.653333-30.72 30.72s13.653333 30.72 30.72 30.72h286.72c17.066667 0 30.72-13.653333 30.72-30.72s-13.653333-30.72-30.72-30.72z m0-146.773333h-286.72c-17.066667 0-30.72 13.653333-30.72 30.72s13.653333 30.72 30.72 30.72h286.72c17.066667 0 30.72-13.653333 30.72-30.72s-13.653333-30.72-30.72-30.72zM556.373333 691.2h-109.226666c-17.066667 0-30.72-13.653333-30.72-30.72V650.24c3.413333-13.653333 17.066667-20.48 30.72-20.48h109.226666c13.653333 0 27.306667 10.24 30.72 20.48v10.24c3.413333 17.066667-10.24 30.72-30.72 30.72z m0 0"  horiz-adv-x="1024" />

    
    <glyph glyph-name="04heyueguanli-shejiyonghu" unicode="&#58926;" d="M204.8 186.026667c6.826667 23.893333 23.893333 40.96 44.373333 54.613333 13.653333 10.24 30.72 20.48 47.786667 27.306667 13.653333 6.826667 23.893333 13.653333 37.546667 17.066666 13.653333 3.413333 20.48 17.066667 23.893333 30.72 3.413333 6.826667 3.413333 13.653333 0 23.893334 0 6.826667-3.413333 10.24-6.826667 13.653333-27.306667 34.133333-44.373333 71.68-51.2 112.64-3.413333 30.72 0 61.44 17.066667 88.746667 20.48 34.133333 51.2 51.2 88.746667 51.2 40.96 3.413333 78.506667-10.24 102.4-44.373334 17.066667-23.893333 23.893333-51.2 23.893333-78.506666 0-40.96-13.653333-75.093333-37.546667-109.226667-3.413333-6.826667-6.826667-13.653333-13.653333-17.066667-13.653333-13.653333-13.653333-51.2 0-61.44 3.413333-3.413333 6.826667-3.413333 10.24-6.826666 30.72-10.24 61.44-23.893333 88.746667-44.373334 13.653333-10.24 27.306667-20.48 40.96-37.546666 10.24-17.066667 13.653333-54.613333 0-68.266667-10.24-10.24-20.48-17.066667-34.133334-23.893333-23.893333-10.24-51.2-13.653333-78.506666-17.066667-17.066667-3.413333-34.133333-3.413333-47.786667-3.413333H378.88c-34.133333 0-68.266667 0-102.4 10.24-17.066667 3.413333-34.133333 10.24-47.786667 20.48-6.826667 3.413333-10.24 10.24-17.066666 13.653333-6.826667 0-6.826667 10.24-6.826667 17.066667v30.72z m0 0M395.946667 90.453333h37.546666-37.546666z m0 0M433.493333 90.453333c3.413333 0 10.24 3.413333 13.653334 0h-13.653334z m0 0M819.2 291.84v-17.066667c0-17.066667-13.653333-30.72-27.306667-37.546666-17.066667-10.24-40.96-13.653333-61.44-20.48-17.066667-3.413333-37.546667-3.413333-54.613333-6.826667-3.413333 0-3.413333 0-6.826667 3.413333-10.24 27.306667-30.72 47.786667-54.613333 64.853334-27.306667 20.48-54.613333 34.133333-85.333333 44.373333-6.826667 3.413333-6.826667 3.413333-3.413334 6.826667 27.306667 34.133333 47.786667 75.093333 54.613334 119.466666 6.826667 44.373333 3.413333 85.333333-20.48 126.293334-6.826667 13.653333-17.066667 27.306667-30.72 37.546666-3.413333 3.413333-3.413333 6.826667-3.413334 10.24 17.066667 34.133333 44.373333 54.613333 81.92 58.026667 58.026667 6.826667 105.813333-34.133333 112.64-92.16 6.826667-51.2-6.826667-98.986667-37.546666-139.946667 0-3.413333-3.413333-3.413333-3.413334-3.413333-10.24-6.826667-10.24-20.48-10.24-30.72 0-10.24 3.413333-17.066667 13.653334-20.48 23.893333-6.826667 44.373333-17.066667 68.266666-30.72 20.48-10.24 37.546667-23.893333 54.613334-40.96 6.826667-10.24 10.24-20.48 13.653333-30.72z m0 0"  horiz-adv-x="1024" />

    
    <glyph glyph-name="05heyueqianshu-zhuyi" unicode="&#58927;" d="M512 827.733333C266.24 827.733333 68.266667 629.76 68.266667 384s197.973333-443.733333 443.733333-443.733333 443.733333 197.973333 443.733333 443.733333S757.76 827.733333 512 827.733333m0-689.493333c-27.306667 0-47.786667 20.48-47.786667 47.786667 0 27.306667 20.48 47.786667 47.786667 47.786666 27.306667 0 47.786667-20.48 47.786667-47.786666 0-13.653333-6.826667-23.893333-13.653334-34.133334-10.24-10.24-20.48-13.653333-34.133333-13.653333m23.893333 197.973333c0-27.306667-10.24-47.786667-23.893333-47.786666-13.653333 0-23.893333 20.48-23.893333 47.786666l-23.893334 218.453334c0 27.306667 20.48 47.786667 47.786667 47.786666 27.306667 0 47.786667-20.48 47.786667-47.786666l-23.893334-218.453334z"  horiz-adv-x="1024" />

    
    <glyph glyph-name="05heyueqianshu-qianshu" unicode="&#58928;" d="M552.96 145.066667c0-3.413333-3.413333-6.826667-3.413333-10.24-10.24-17.066667-20.48-37.546667-27.306667-54.613334-10.24-27.306667-3.413333-51.2 23.893333-61.44 51.2-17.066667 105.813333-13.653333 153.6 6.826667 13.653333 3.413333 17.066667 6.826667 51.2 20.48 23.893333 10.24 47.786667 17.066667 75.093334 23.893333h3.413333c13.653333 3.413333 10.24 6.826667 23.893333 0 6.826667-3.413333 13.653333-6.826667 20.48-3.413333 6.826667 0 6.826667 3.413333 13.653334 10.24 3.413333 6.826667 6.826667 13.653333 3.413333 20.48 0 6.826667-6.826667 13.653333-10.24 17.066667-27.306667 20.48-34.133333 13.653333-61.44 10.24h-6.826667c-27.306667-6.826667-54.613333-17.066667-81.92-27.306667-30.72-13.653333-34.133333-13.653333-47.786666-17.066667-34.133333-13.653333-75.093333-17.066667-112.64-10.24 6.826667 17.066667 13.653333 30.72 23.893333 47.786667 3.413333 3.413333 3.413333 6.826667 6.826667 10.24 13.653333 20.48 20.48 40.96 27.306666 64.853333 3.413333 13.653333 0 27.306667-6.826666 40.96-6.826667 10.24-20.48 20.48-34.133334 20.48-40.96 10.24-85.333333-3.413333-215.04-54.613333-119.466667-47.786667-170.666667-61.44-187.733333-51.2-10.24-3.413333-17.066667-3.413333-20.48-3.413333-10.24-3.413333-17.066667-10.24-20.48-20.48 0-10.24 3.413333-20.48 13.653333-27.306667 34.133333-13.653333 71.68-10.24 102.4 3.413333 44.373333 13.653333 85.333333 27.306667 126.293334 47.786667 112.64 44.373333 160.426667 58.026667 184.32 51.2 3.413333 0 3.413333 0 3.413333-3.413333-3.413333-20.48-10.24-34.133333-20.48-51.2z m133.12 593.92c-27.306667 23.893333-71.68 23.893333-98.986667 0l-409.6-409.6c-3.413333-3.413333-6.826667-6.826667-6.826666-10.24l-34.133334-119.466667c-3.413333-10.24 0-20.48 6.826667-27.306667 6.826667-6.826667 17.066667-6.826667 27.306667-3.413333L273.066667 213.333333c6.826667 3.413333 17.066667 6.826667 20.48 13.653334l409.6 389.12 6.826666 6.826666c13.653333 13.653333 20.48 30.72 20.48 51.2s-10.24 37.546667-23.893333 51.2l-20.48 13.653334z m0 0"  horiz-adv-x="1024" />

    
    <glyph glyph-name="06shengxiaoheyuechaxun-jiami" unicode="&#58929;" d="M467.626667 431.786667h471.04v-95.573334H467.626667v95.573334z m0-95.573334M843.093333 431.786667h95.573334v-187.733334h-95.573334v187.733334z m0-187.733334M703.146667 431.786667h95.573333v-187.733334h-95.573333v187.733334z m0-187.733334M153.6 551.253333c92.16 92.16 242.346667 92.16 331.093333 0 92.16-92.16 92.16-242.346667 0-331.093333-92.16-92.16-242.346667-92.16-331.093333 0-92.16 88.746667-92.16 238.933333 0 331.093333z m68.266667-68.266666c-54.613333-54.613333-54.613333-143.36 0-197.973334 54.613333-54.613333 143.36-54.613333 197.973333 0 54.613333 54.613333 54.613333 143.36 0 197.973334-54.613333 54.613333-143.36 54.613333-197.973333 0z m0 0"  horiz-adv-x="1024" />

    
    <glyph glyph-name="06shengxiaoheyuechaxun-jiaoyijilu" unicode="&#58930;" d="M491.52 503.466667l47.786667-37.546667 98.986666 126.293333-47.786666 37.546667-98.986667-126.293333z m0 0M95.573333 220.16l54.613334 20.48c58.026667-150.186667 204.8-249.173333 365.226666-249.173333 197.973333 0 361.813333 146.773333 385.706667 337.92l58.026667-6.826667c-30.72-221.866667-218.453333-392.533333-447.146667-392.533333-180.906667 3.413333-348.16 119.466667-416.426667 290.133333z m846.506667 314.026667l-58.026667-20.48C829.44 670.72 682.666667 773.12 515.413333 773.12 317.44 773.12 150.186667 622.933333 129.706667 424.96L68.266667 431.786667C92.16 660.48 286.72 834.56 515.413333 834.56c191.146667 0 361.813333-119.466667 426.666667-300.373333z m0 0M95.573333 455.68l78.506667 44.373333 30.72-51.2-102.4-61.44c-13.653333-6.826667-34.133333-3.413333-40.96 10.24L0 503.466667l51.2 30.72 44.373333-78.506667z m832.853334-167.253333l-78.506667-44.373334-30.72 51.2 105.813333 61.44c6.826667 3.413333 13.653333 3.413333 23.893334 3.413334 6.826667-3.413333 13.653333-6.826667 17.066666-13.653334l61.44-105.813333-51.2-30.72-47.786666 78.506667z m0 0M675.84 482.986667v-61.44h-320.853333v61.44h320.853333z m0-139.946667V281.6h-320.853333v61.44h320.853333z m0 0M546.133333 134.826667h-61.44v320.853333H546.133333v-320.853333z m-6.826666 368.64l-47.786667-37.546667-98.986667 126.293333 47.786667 37.546667 98.986667-126.293333z m0 0"  horiz-adv-x="1027" />

    
    <glyph glyph-name="daohang-heyuechaxun-xuanzhong" unicode="&#58931;" d="M729.088 168.96c57.344 59.392 90.112 141.312 90.112 225.28C819.2 568.32 681.984 711.68 512 711.68s-307.2-143.36-307.2-317.44C204.8 218.112 342.016 76.8 512 76.8c67.584 0 133.12 22.528 186.368 65.536l73.728-77.824c4.096-4.096 8.192-6.144 14.336-6.144 6.144 0 10.24 2.048 14.336 6.144 8.192 8.192 8.192 20.48 0 28.672l-71.68 75.776z m-485.376 225.28C243.712 545.792 364.544 670.72 512 670.72c147.456 0 268.288-124.928 268.288-276.48S659.456 117.76 512 117.76c-147.456 0-268.288 122.88-268.288 276.48z m0 0M643.072 496.64H382.976c-12.288 0-22.528 10.24-22.528 22.528 0 12.288 10.24 22.528 22.528 22.528h262.144c12.288 0 22.528-10.24 22.528-22.528-2.048-14.336-12.288-22.528-24.576-22.528zM643.072 361.472H382.976c-12.288 0-22.528 10.24-22.528 22.528 0 12.288 10.24 22.528 22.528 22.528h262.144c12.288 0 22.528-10.24 22.528-22.528-2.048-12.288-12.288-22.528-24.576-22.528zM552.96 228.352h-169.984c-8.192 0-14.336 4.096-18.432 10.24-4.096 6.144-4.096 16.384 0 22.528 4.096 6.144 10.24 10.24 18.432 10.24H552.96c12.288 0 22.528-10.24 22.528-22.528-2.048-10.24-10.24-20.48-22.528-20.48z"  horiz-adv-x="1024" />

    
    <glyph glyph-name="daohang-heyuechaxun" unicode="&#58932;" d="M729.088 168.96c57.344 59.392 90.112 141.312 90.112 225.28C819.2 568.32 681.984 711.68 512 711.68s-307.2-143.36-307.2-317.44C204.8 218.112 342.016 76.8 512 76.8c67.584 0 133.12 22.528 186.368 65.536l73.728-77.824c4.096-4.096 8.192-6.144 14.336-6.144 6.144 0 10.24 2.048 14.336 6.144 8.192 8.192 8.192 20.48 0 28.672l-71.68 75.776z m-485.376 225.28C243.712 545.792 364.544 670.72 512 670.72c147.456 0 268.288-124.928 268.288-276.48S659.456 117.76 512 117.76c-147.456 0-268.288 122.88-268.288 276.48z m0 0M643.072 496.64H382.976c-12.288 0-22.528 10.24-22.528 22.528 0 12.288 10.24 22.528 22.528 22.528h262.144c12.288 0 22.528-10.24 22.528-22.528-2.048-14.336-12.288-22.528-24.576-22.528zM643.072 361.472H382.976c-12.288 0-22.528 10.24-22.528 22.528 0 12.288 10.24 22.528 22.528 22.528h262.144c12.288 0 22.528-10.24 22.528-22.528-2.048-12.288-12.288-22.528-24.576-22.528zM552.96 228.352h-169.984c-8.192 0-14.336 4.096-18.432 10.24-4.096 6.144-4.096 16.384 0 22.528 4.096 6.144 10.24 10.24 18.432 10.24H552.96c12.288 0 22.528-10.24 22.528-22.528-2.048-10.24-10.24-20.48-22.528-20.48z"  horiz-adv-x="1024" />

    
    <glyph glyph-name="daohang-heyuefabu" unicode="&#58933;" d="M722.944 76.8H301.056c-30.72 0-55.296 26.624-55.296 57.344V633.856c0 30.72 24.576 57.344 55.296 57.344h419.84c30.72 0 55.296-26.624 55.296-57.344v-499.712c2.048-30.72-22.528-57.344-53.248-57.344zM301.056 652.288c-10.24 0-16.384-8.192-16.384-18.432v-499.712c0-10.24 8.192-18.432 16.384-18.432h419.84c10.24 0 16.384 8.192 16.384 18.432V633.856c0 10.24-8.192 18.432-16.384 18.432H301.056z m0 0M389.12 541.696h-43.008c-10.24 0-18.432 8.192-18.432 20.48 0 10.24 8.192 20.48 18.432 20.48H389.12c10.24 0 18.432-8.192 18.432-20.48 2.048-12.288-8.192-20.48-18.432-20.48z m292.864 0H460.8c-10.24 0-18.432 8.192-18.432 20.48 0 10.24 8.192 20.48 18.432 20.48h221.184c10.24 0 18.432-8.192 18.432-20.48s-8.192-20.48-18.432-20.48zM389.12 416.768h-43.008c-10.24 0-18.432 8.192-18.432 20.48 0 10.24 8.192 20.48 18.432 20.48H389.12c10.24 0 18.432-8.192 18.432-20.48 2.048-12.288-8.192-20.48-18.432-20.48z m292.864 0H460.8c-10.24 0-18.432 8.192-18.432 20.48 0 10.24 8.192 20.48 18.432 20.48h221.184c10.24 0 18.432-8.192 18.432-20.48s-8.192-20.48-18.432-20.48zM389.12 300.032h-43.008c-10.24 0-18.432 8.192-18.432 20.48 0 10.24 8.192 20.48 18.432 20.48H389.12c10.24 0 18.432-8.192 18.432-20.48 2.048-12.288-8.192-20.48-18.432-20.48z m0-120.832h-43.008c-10.24 0-18.432 8.192-18.432 20.48 0 10.24 8.192 20.48 18.432 20.48H389.12c10.24 0 18.432-8.192 18.432-20.48s-8.192-20.48-18.432-20.48z m292.864 120.832H460.8c-10.24 0-18.432 8.192-18.432 20.48 0 10.24 8.192 20.48 18.432 20.48h221.184c10.24 0 18.432-8.192 18.432-20.48s-8.192-20.48-18.432-20.48z m0-118.784H460.8c-10.24 0-18.432 8.192-18.432 20.48 0 10.24 8.192 20.48 18.432 20.48h221.184c10.24 0 18.432-8.192 18.432-20.48 0-10.24-8.192-20.48-18.432-20.48z m0 0"  horiz-adv-x="1024" />

    
    <glyph glyph-name="daohang-heyuefabu-xuanzhong" unicode="&#58934;" d="M722.944 76.8H301.056c-30.72 0-55.296 26.624-55.296 57.344V633.856c0 30.72 24.576 57.344 55.296 57.344h419.84c30.72 0 55.296-26.624 55.296-57.344v-499.712c2.048-30.72-22.528-57.344-53.248-57.344zM301.056 652.288c-10.24 0-16.384-8.192-16.384-18.432v-499.712c0-10.24 8.192-18.432 16.384-18.432h419.84c10.24 0 16.384 8.192 16.384 18.432V633.856c0 10.24-8.192 18.432-16.384 18.432H301.056z m0 0M389.12 541.696h-43.008c-10.24 0-18.432 8.192-18.432 20.48 0 10.24 8.192 20.48 18.432 20.48H389.12c10.24 0 18.432-8.192 18.432-20.48 2.048-12.288-8.192-20.48-18.432-20.48z m292.864 0H460.8c-10.24 0-18.432 8.192-18.432 20.48 0 10.24 8.192 20.48 18.432 20.48h221.184c10.24 0 18.432-8.192 18.432-20.48s-8.192-20.48-18.432-20.48zM389.12 416.768h-43.008c-10.24 0-18.432 8.192-18.432 20.48 0 10.24 8.192 20.48 18.432 20.48H389.12c10.24 0 18.432-8.192 18.432-20.48 2.048-12.288-8.192-20.48-18.432-20.48z m292.864 0H460.8c-10.24 0-18.432 8.192-18.432 20.48 0 10.24 8.192 20.48 18.432 20.48h221.184c10.24 0 18.432-8.192 18.432-20.48s-8.192-20.48-18.432-20.48zM389.12 300.032h-43.008c-10.24 0-18.432 8.192-18.432 20.48 0 10.24 8.192 20.48 18.432 20.48H389.12c10.24 0 18.432-8.192 18.432-20.48 2.048-12.288-8.192-20.48-18.432-20.48z m0-120.832h-43.008c-10.24 0-18.432 8.192-18.432 20.48 0 10.24 8.192 20.48 18.432 20.48H389.12c10.24 0 18.432-8.192 18.432-20.48s-8.192-20.48-18.432-20.48z m292.864 120.832H460.8c-10.24 0-18.432 8.192-18.432 20.48 0 10.24 8.192 20.48 18.432 20.48h221.184c10.24 0 18.432-8.192 18.432-20.48s-8.192-20.48-18.432-20.48z m0-118.784H460.8c-10.24 0-18.432 8.192-18.432 20.48 0 10.24 8.192 20.48 18.432 20.48h221.184c10.24 0 18.432-8.192 18.432-20.48 0-10.24-8.192-20.48-18.432-20.48z m0 0"  horiz-adv-x="1024" />

    
    <glyph glyph-name="daohang-heyueguanli-xuanzhong" unicode="&#58935;" d="M520.192 76.8H313.344c-36.864 0-67.584 30.72-67.584 69.632V621.568c0 38.912 30.72 69.632 67.584 69.632h399.36c36.864 0 67.584-30.72 67.584-69.632v-309.248c0-12.288-8.192-20.48-20.48-20.48-10.24 0-20.48 8.192-20.48 20.48V621.568c0 14.336-12.288 26.624-26.624 26.624H313.344c-14.336 0-26.624-12.288-26.624-26.624v-475.136c0-14.336 12.288-26.624 26.624-26.624h206.848c8.192 0 14.336-4.096 18.432-10.24 4.096-6.144 4.096-14.336 0-20.48-6.144-8.192-12.288-12.288-18.432-12.288z m102.4 452.608H382.976c-10.24 0-20.48 8.192-20.48 20.48s8.192 20.48 20.48 20.48h241.664c10.24 0 20.48-8.192 20.48-20.48-2.048-10.24-10.24-20.48-22.528-20.48z m0-122.88H382.976c-10.24 0-20.48 8.192-20.48 20.48s8.192 20.48 20.48 20.48h241.664c10.24 0 20.48-8.192 20.48-20.48-2.048-12.288-10.24-20.48-22.528-20.48z m-83.968-122.88h-157.696c-6.144 0-14.336 4.096-18.432 10.24-4.096 6.144-4.096 14.336 0 20.48 4.096 6.144 10.24 10.24 18.432 10.24h157.696c10.24 0 20.48-8.192 20.48-20.48s-10.24-20.48-20.48-20.48z m0 0M626.688 76.8c-10.24 0-18.432 4.096-24.576 10.24l-59.392 63.488c-8.192 8.192-8.192 20.48 0 28.672 4.096 4.096 8.192 6.144 14.336 6.144 6.144 0 10.24-2.048 14.336-6.144l57.344-59.392 114.688 118.784c4.096 4.096 8.192 6.144 14.336 6.144 6.144 0 10.24-2.048 14.336-6.144 8.192-8.192 8.192-20.48 0-28.672l-118.784-120.832c-8.192-8.192-16.384-12.288-26.624-12.288z m0 0"  horiz-adv-x="1024" />

    
    <glyph glyph-name="daohang-heyueguanli" unicode="&#58936;" d="M520.192 76.8H313.344c-36.864 0-67.584 30.72-67.584 69.632V621.568c0 38.912 30.72 69.632 67.584 69.632h399.36c36.864 0 67.584-30.72 67.584-69.632v-309.248c0-12.288-8.192-20.48-20.48-20.48-10.24 0-20.48 8.192-20.48 20.48V621.568c0 14.336-12.288 26.624-26.624 26.624H313.344c-14.336 0-26.624-12.288-26.624-26.624v-475.136c0-14.336 12.288-26.624 26.624-26.624h206.848c8.192 0 14.336-4.096 18.432-10.24 4.096-6.144 4.096-14.336 0-20.48-6.144-8.192-12.288-12.288-18.432-12.288z m102.4 452.608H382.976c-10.24 0-20.48 8.192-20.48 20.48s8.192 20.48 20.48 20.48h241.664c10.24 0 20.48-8.192 20.48-20.48-2.048-10.24-10.24-20.48-22.528-20.48z m0-122.88H382.976c-10.24 0-20.48 8.192-20.48 20.48s8.192 20.48 20.48 20.48h241.664c10.24 0 20.48-8.192 20.48-20.48-2.048-12.288-10.24-20.48-22.528-20.48z m-83.968-122.88h-157.696c-6.144 0-14.336 4.096-18.432 10.24-4.096 6.144-4.096 14.336 0 20.48 4.096 6.144 10.24 10.24 18.432 10.24h157.696c10.24 0 20.48-8.192 20.48-20.48s-10.24-20.48-20.48-20.48z m0 0M626.688 76.8c-10.24 0-18.432 4.096-24.576 10.24l-59.392 63.488c-8.192 8.192-8.192 20.48 0 28.672 4.096 4.096 8.192 6.144 14.336 6.144 6.144 0 10.24-2.048 14.336-6.144l57.344-59.392 114.688 118.784c4.096 4.096 8.192 6.144 14.336 6.144 6.144 0 10.24-2.048 14.336-6.144 8.192-8.192 8.192-20.48 0-28.672l-118.784-120.832c-8.192-8.192-16.384-12.288-26.624-12.288z m0 0"  horiz-adv-x="1024" />

    
    <glyph glyph-name="daohang-lianmengjiedian-xuanzhong" unicode="&#58937;" d="M696.32 443.392c-12.288 0-20.48-10.24-20.48-20.48v-190.464c0-40.96-32.768-73.728-71.68-73.728S532.48 191.488 532.48 232.448V470.016c0 49.152-49.152 88.064-112.64 88.064S307.2 519.168 307.2 470.016v-135.168c0-12.288 10.24-20.48 20.48-20.48s20.48 10.24 20.48 20.48v135.168c0 24.576 32.768 47.104 71.68 47.104s71.68-20.48 71.68-47.104v-235.52c0-63.488 51.2-114.688 112.64-114.688s112.64 51.2 112.64 114.688V424.96c0 10.24-8.192 18.432-20.48 18.432z m0 0M694.272 410.624c-59.392 0-112.64 34.816-135.168 92.16-22.528 55.296-10.24 120.832 30.72 163.84 40.96 43.008 104.448 55.296 159.744 32.768s90.112-77.824 90.112-139.264c0-81.92-65.536-147.456-145.408-149.504z m0 258.048c-43.008 0-81.92-26.624-98.304-65.536-16.384-40.96-8.192-86.016 22.528-116.736s75.776-40.96 114.688-24.576c38.912 16.384 65.536 55.296 65.536 100.352 0 57.344-47.104 106.496-104.448 106.496zM331.776 56.32c-59.392 0-112.64 34.816-135.168 92.16-22.528 55.296-10.24 120.832 30.72 163.84 40.96 43.008 104.448 55.296 159.744 32.768s90.112-77.824 90.112-139.264c0-81.92-65.536-147.456-145.408-149.504z m0 258.048c-43.008 0-81.92-26.624-98.304-65.536-16.384-40.96-8.192-86.016 22.528-116.736s75.776-40.96 114.688-24.576c38.912 16.384 65.536 55.296 65.536 100.352 0 59.392-47.104 106.496-104.448 106.496z m0 0"  horiz-adv-x="1024" />

    
    <glyph glyph-name="daohang-lianyonghufenxi" unicode="&#58938;" d="M608.256 404.48c65.536 43.008 96.256 124.928 73.728 200.704A177.5616 177.5616 0 0 1 512 732.16c-77.824 0-147.456-51.2-169.984-126.976-22.528-75.776 8.192-157.696 73.728-200.704C266.24 361.472 163.84 222.208 163.84 66.56c0-8.192 4.096-14.336 10.24-18.432 6.144-4.096 14.336-4.096 20.48 0 6.144 4.096 10.24 10.24 10.24 18.432 0 169.984 137.216 307.2 305.152 307.2s305.152-137.216 305.152-307.2c0-8.192 4.096-14.336 10.24-18.432 6.144-4.096 14.336-4.096 20.48 0 6.144 4.096 10.24 10.24 10.24 18.432C860.16 222.208 757.76 361.472 608.256 404.48z m-231.424 149.504c0 75.776 61.44 135.168 135.168 135.168 73.728 0 135.168-61.44 135.168-135.168 0-75.776-59.392-135.168-135.168-135.168-73.728 0-135.168 61.44-135.168 135.168z m0 0M534.528 254.976h-45.056c-16.384 0-30.72 14.336-32.768 30.72l-2.048 36.864c0 18.432 14.336 32.768 32.768 32.768h51.2c18.432 0 32.768-14.336 32.768-32.768v-2.048l-4.096-34.816c-2.048-16.384-16.384-28.672-32.768-30.72z m-34.816 43.008h26.624l2.048 14.336h-28.672v-14.336z m10.24-262.144c-8.192 0-14.336 4.096-18.432 10.24L452.608 97.28c-4.096 4.096-4.096 10.24-4.096 16.384l8.192 106.496c0 12.288 10.24 22.528 22.528 22.528h65.536c12.288 0 22.528-10.24 22.528-22.528l8.192-106.496c0-6.144-2.048-12.288-6.144-16.384l-43.008-51.2c-4.096-8.192-10.24-10.24-16.384-10.24z m-18.432 79.872l20.48-26.624 20.48 28.672-6.144 79.872h-30.72l-4.096-81.92z m6.144 100.352z m0 0"  horiz-adv-x="1024" />

    
    <glyph glyph-name="daohang-lianmengjiedian" unicode="&#58939;" d="M696.32 443.392c-12.288 0-20.48-10.24-20.48-20.48v-190.464c0-40.96-32.768-73.728-71.68-73.728S532.48 191.488 532.48 232.448V470.016c0 49.152-49.152 88.064-112.64 88.064S307.2 519.168 307.2 470.016v-135.168c0-12.288 10.24-20.48 20.48-20.48s20.48 10.24 20.48 20.48v135.168c0 24.576 32.768 47.104 71.68 47.104s71.68-20.48 71.68-47.104v-235.52c0-63.488 51.2-114.688 112.64-114.688s112.64 51.2 112.64 114.688V424.96c0 10.24-8.192 18.432-20.48 18.432z m0 0M694.272 410.624c-59.392 0-112.64 34.816-135.168 92.16-22.528 55.296-10.24 120.832 30.72 163.84 40.96 43.008 104.448 55.296 159.744 32.768s90.112-77.824 90.112-139.264c0-81.92-65.536-147.456-145.408-149.504z m0 258.048c-43.008 0-81.92-26.624-98.304-65.536-16.384-40.96-8.192-86.016 22.528-116.736s75.776-40.96 114.688-24.576c38.912 16.384 65.536 55.296 65.536 100.352 0 57.344-47.104 106.496-104.448 106.496zM331.776 56.32c-59.392 0-112.64 34.816-135.168 92.16-22.528 55.296-10.24 120.832 30.72 163.84 40.96 43.008 104.448 55.296 159.744 32.768s90.112-77.824 90.112-139.264c0-81.92-65.536-147.456-145.408-149.504z m0 258.048c-43.008 0-81.92-26.624-98.304-65.536-16.384-40.96-8.192-86.016 22.528-116.736s75.776-40.96 114.688-24.576c38.912 16.384 65.536 55.296 65.536 100.352 0 59.392-47.104 106.496-104.448 106.496z m0 0"  horiz-adv-x="1024" />

    
    <glyph glyph-name="daohang-heyueqianshu-xuanzhong" unicode="&#58940;" d="M825.344 422.912L778.24 472.064c-8.192 8.192-20.48 14.336-32.768 14.336h-63.488c-2.048 0-2.048 0-4.096 2.048L614.4 553.984c-2.048 2.048-2.048 2.048-2.048 4.096l2.048 57.344c0 14.336-4.096 26.624-14.336 34.816L552.96 697.344c-8.192 8.192-20.48 14.336-32.768 14.336s-24.576-4.096-32.768-14.336l-161.792-163.84c-18.432-18.432-18.432-49.152 0-67.584l47.104-49.152c10.24-10.24 22.528-14.336 34.816-14.336h6.144L196.608 185.344c-16.384-16.384-16.384-45.056 0-61.44l53.248-53.248c8.192-8.192 18.432-12.288 30.72-12.288s22.528 4.096 30.72 12.288l217.088 219.136v-10.24c0-12.288 4.096-24.576 14.336-32.768l53.248-53.248c8.192-8.192 20.48-14.336 32.768-14.336 12.288 0 24.576 4.096 32.768 14.336l161.792 163.84c20.48 18.432 20.48 47.104 2.048 65.536zM282.624 99.328h-2.048l-53.248 53.248v2.048 2.048l239.616 241.664 57.344-55.296-241.664-243.712z m514.048 286.72l-161.792-163.84c-2.048-2.048-6.144-2.048-8.192 0L573.44 275.456c0 2.048-2.048 2.048-2.048 4.096v57.344c0 12.288-6.144 24.576-14.336 34.816l-65.536 61.44c-8.192 8.192-20.48 12.288-32.768 14.336h-2.048l-51.2-2.048c-2.048 0-2.048 0-4.096 2.048l-47.104 49.152c-2.048 2.048-2.048 6.144 0 8.192l161.792 163.84c0 2.048 2.048 2.048 4.096 2.048s2.048 0 4.096-2.048l47.104-47.104c2.048-2.048 2.048-2.048 2.048-4.096l-2.048-57.344c0-12.288 4.096-26.624 14.336-34.816l63.488-65.536c8.192-8.192 20.48-14.336 34.816-14.336h63.488c2.048 0 2.048 0 4.096-2.048l47.104-47.104c0-4.096 0-8.192-2.048-10.24z m0 0M817.152 56.32h-389.12c-12.288 0-20.48 10.24-20.48 20.48 0 12.288 10.24 20.48 20.48 20.48h389.12c12.288 0 20.48-10.24 20.48-20.48 2.048-10.24-8.192-20.48-20.48-20.48z m0 0"  horiz-adv-x="1024" />

    
    <glyph glyph-name="daohang-shengxiaoheyuechaxun" unicode="&#58941;" d="M819.2 633.856c0 32.768-26.624 57.344-61.44 57.344H266.24c-32.768 0-61.44-26.624-61.44-57.344V164.864c2.048-49.152 45.056-88.064 96.256-88.064H798.72c12.288 0 20.48 8.192 20.48 20.48 0 10.24-10.24 20.48-20.48 20.48H303.104c-30.72 0-55.296 22.528-55.296 53.248 0 28.672 24.576 53.248 55.296 53.248H798.72c12.288 0 20.48 8.192 20.48 20.48v4.096 385.024z m-571.392-389.12v389.12c0 10.24 8.192 18.432 18.432 18.432h491.52c10.24 0 18.432-8.192 18.432-18.432V261.12H303.104c-20.48 0-40.96-6.144-55.296-16.384z m548.864-55.296H299.008c-12.288 0-20.48-8.192-20.48-20.48 0-10.24 10.24-20.48 20.48-20.48h497.664c12.288 0 20.48 8.192 20.48 20.48 0 10.24-10.24 20.48-20.48 20.48z m0 0M483.328 340.992c-12.288 0-24.576 4.096-32.768 14.336l-81.92 77.824c-10.24 10.24-10.24 26.624 0 36.864 4.096 4.096 12.288 8.192 18.432 8.192 6.144 0 14.336-2.048 18.432-8.192l77.824-73.728 153.6 145.408c4.096 4.096 12.288 8.192 18.432 8.192 6.144 0 14.336-2.048 18.432-8.192 10.24-10.24 10.24-26.624 0-36.864l-157.696-149.504c-8.192-10.24-20.48-14.336-32.768-14.336z m0 0"  horiz-adv-x="1024" />

    
    <glyph glyph-name="daohang-lianyonghufenxi-xuanzhong" unicode="&#58942;" d="M608.256 404.48c65.536 43.008 96.256 124.928 73.728 200.704A177.5616 177.5616 0 0 1 512 732.16c-77.824 0-147.456-51.2-169.984-126.976-22.528-75.776 8.192-157.696 73.728-200.704C266.24 361.472 163.84 222.208 163.84 66.56c0-8.192 4.096-14.336 10.24-18.432 6.144-4.096 14.336-4.096 20.48 0 6.144 4.096 10.24 10.24 10.24 18.432 0 169.984 137.216 307.2 305.152 307.2s305.152-137.216 305.152-307.2c0-8.192 4.096-14.336 10.24-18.432 6.144-4.096 14.336-4.096 20.48 0 6.144 4.096 10.24 10.24 10.24 18.432C860.16 222.208 757.76 361.472 608.256 404.48z m-231.424 149.504c0 75.776 61.44 135.168 135.168 135.168 73.728 0 135.168-61.44 135.168-135.168 0-75.776-59.392-135.168-135.168-135.168-73.728 0-135.168 61.44-135.168 135.168z m0 0M534.528 254.976h-45.056c-16.384 0-30.72 14.336-32.768 30.72l-2.048 36.864c0 18.432 14.336 32.768 32.768 32.768h51.2c18.432 0 32.768-14.336 32.768-32.768v-2.048l-4.096-34.816c-2.048-16.384-16.384-28.672-32.768-30.72z m-34.816 43.008h26.624l2.048 14.336h-28.672v-14.336z m10.24-262.144c-8.192 0-14.336 4.096-18.432 10.24L452.608 97.28c-4.096 4.096-4.096 10.24-4.096 16.384l8.192 106.496c0 12.288 10.24 22.528 22.528 22.528h65.536c12.288 0 22.528-10.24 22.528-22.528l8.192-106.496c0-6.144-2.048-12.288-6.144-16.384l-43.008-51.2c-4.096-8.192-10.24-10.24-16.384-10.24z m-18.432 79.872l20.48-26.624 20.48 28.672-6.144 79.872h-30.72l-4.096-81.92z m6.144 100.352z m0 0"  horiz-adv-x="1024" />

    
    <glyph glyph-name="daohang-heyueqianshu" unicode="&#58943;" d="M825.344 422.912L778.24 472.064c-8.192 8.192-20.48 14.336-32.768 14.336h-63.488c-2.048 0-2.048 0-4.096 2.048L614.4 553.984c-2.048 2.048-2.048 2.048-2.048 4.096l2.048 57.344c0 14.336-4.096 26.624-14.336 34.816L552.96 697.344c-8.192 8.192-20.48 14.336-32.768 14.336s-24.576-4.096-32.768-14.336l-161.792-163.84c-18.432-18.432-18.432-49.152 0-67.584l47.104-49.152c10.24-10.24 22.528-14.336 34.816-14.336h6.144L196.608 185.344c-16.384-16.384-16.384-45.056 0-61.44l53.248-53.248c8.192-8.192 18.432-12.288 30.72-12.288s22.528 4.096 30.72 12.288l217.088 219.136v-10.24c0-12.288 4.096-24.576 14.336-32.768l53.248-53.248c8.192-8.192 20.48-14.336 32.768-14.336 12.288 0 24.576 4.096 32.768 14.336l161.792 163.84c20.48 18.432 20.48 47.104 2.048 65.536zM282.624 99.328h-2.048l-53.248 53.248v2.048 2.048l239.616 241.664 57.344-55.296-241.664-243.712z m514.048 286.72l-161.792-163.84c-2.048-2.048-6.144-2.048-8.192 0L573.44 275.456c0 2.048-2.048 2.048-2.048 4.096v57.344c0 12.288-6.144 24.576-14.336 34.816l-65.536 61.44c-8.192 8.192-20.48 12.288-32.768 14.336h-2.048l-51.2-2.048c-2.048 0-2.048 0-4.096 2.048l-47.104 49.152c-2.048 2.048-2.048 6.144 0 8.192l161.792 163.84c0 2.048 2.048 2.048 4.096 2.048s2.048 0 4.096-2.048l47.104-47.104c2.048-2.048 2.048-2.048 2.048-4.096l-2.048-57.344c0-12.288 4.096-26.624 14.336-34.816l63.488-65.536c8.192-8.192 20.48-14.336 34.816-14.336h63.488c2.048 0 2.048 0 4.096-2.048l47.104-47.104c0-4.096 0-8.192-2.048-10.24z m0 0M817.152 56.32h-389.12c-12.288 0-20.48 10.24-20.48 20.48 0 12.288 10.24 20.48 20.48 20.48h389.12c12.288 0 20.48-10.24 20.48-20.48 2.048-10.24-8.192-20.48-20.48-20.48z m0 0"  horiz-adv-x="1024" />

    
    <glyph glyph-name="denglu-yonghuming" unicode="&#58944;" d="M904.533333-56.888889H119.466667l2.844444 31.288889c0 2.844444 39.822222 292.977778 284.444445 358.4-82.488889 42.666667-139.377778 130.844444-139.377778 230.4 0 142.222222 116.622222 261.688889 258.844444 261.688889s258.844444-116.622222 258.844445-261.688889c0-105.244444-62.577778-196.266667-153.6-236.088889 224.711111-76.8 261.688889-347.022222 264.533333-349.866667l8.533333-34.133333z m-716.8 56.888889h648.533334c-19.911111 82.488889-91.022222 287.288889-324.266667 287.288889-233.244444 2.844444-304.355556-204.8-324.266667-287.288889z m341.333334 768c-110.933333 0-201.955556-91.022222-201.955556-204.8s91.022222-204.8 201.955556-204.8c110.933333 0 201.955556 91.022222 201.955555 204.8s-91.022222 204.8-201.955555 204.8z"  horiz-adv-x="1024" />

    
    <glyph glyph-name="daohang-shengxiaoheyuechaxun-xuanzhong" unicode="&#58945;" d="M819.2 633.856c0 32.768-26.624 57.344-61.44 57.344H266.24c-32.768 0-61.44-26.624-61.44-57.344V164.864c2.048-49.152 45.056-88.064 96.256-88.064H798.72c12.288 0 20.48 8.192 20.48 20.48 0 10.24-10.24 20.48-20.48 20.48H303.104c-30.72 0-55.296 22.528-55.296 53.248 0 28.672 24.576 53.248 55.296 53.248H798.72c12.288 0 20.48 8.192 20.48 20.48v4.096 385.024z m-571.392-389.12v389.12c0 10.24 8.192 18.432 18.432 18.432h491.52c10.24 0 18.432-8.192 18.432-18.432V261.12H303.104c-20.48 0-40.96-6.144-55.296-16.384z m548.864-55.296H299.008c-12.288 0-20.48-8.192-20.48-20.48 0-10.24 10.24-20.48 20.48-20.48h497.664c12.288 0 20.48 8.192 20.48 20.48 0 10.24-10.24 20.48-20.48 20.48z m0 0M483.328 340.992c-12.288 0-24.576 4.096-32.768 14.336l-81.92 77.824c-10.24 10.24-10.24 26.624 0 36.864 4.096 4.096 12.288 8.192 18.432 8.192 6.144 0 14.336-2.048 18.432-8.192l77.824-73.728 153.6 145.408c4.096 4.096 12.288 8.192 18.432 8.192 6.144 0 14.336-2.048 18.432-8.192 10.24-10.24 10.24-26.624 0-36.864l-157.696-149.504c-8.192-10.24-20.48-14.336-32.768-14.336z m0 0"  horiz-adv-x="1024" />

    
    <glyph glyph-name="sousuo" unicode="&#58946;" d="M812.373333 110.933333L682.666667 244.053333c105.813333 102.4 105.813333 262.826667 3.413333 365.226667-102.4 102.4-273.066667 109.226667-385.706667 17.066667-112.64-92.16-126.293333-252.586667-30.72-365.226667 95.573333-109.226667 262.826667-129.706667 382.293334-44.373333l133.12-133.12c6.826667-6.826667 20.48-6.826667 30.72 0 3.413333 6.826667 6.826667 20.48-3.413334 27.306666zM245.76 428.373333c0 122.88 105.813333 225.28 238.933333 225.28 129.706667 0 235.52-102.4 235.52-225.28 0-122.88-105.813333-225.28-238.933333-225.28-129.706667 0-235.52 102.4-235.52 225.28z m0 0M300.373333 397.653333c-6.826667 0-10.24 3.413333-13.653333 6.826667-3.413333 3.413333-6.826667 10.24-6.826667 13.653333 0 112.64 95.573333 201.386667 215.04 201.386667 6.826667 0 13.653333-3.413333 17.066667-10.24s3.413333-13.653333 0-20.48c-3.413333-6.826667-10.24-10.24-17.066667-10.24-95.573333 0-170.666667-71.68-170.666666-163.84-3.413333-6.826667-13.653333-17.066667-23.893334-17.066667z m0 0"  horiz-adv-x="1024" />

    
    <glyph glyph-name="tuichu" unicode="&#58947;" d="M675.84 305.493333c-3.413333 0-10.24-3.413333-13.653333-6.826666-3.413333-3.413333-6.826667-10.24-6.826667-13.653334v-102.4c0-17.066667-10.24-30.72-27.306667-30.72H269.653333c-13.653333 0-27.306667 13.653333-27.306666 30.72V585.386667c0 17.066667 10.24 30.72 27.306666 30.72h361.813334c13.653333 0 27.306667-13.653333 27.306666-30.72v-105.813334c0-6.826667 3.413333-13.653333 10.24-17.066666 6.826667-3.413333 13.653333-3.413333 20.48 0 6.826667 3.413333 10.24 10.24 10.24 17.066666V585.386667c0 37.546667-27.306667 71.68-64.853333 71.68H269.653333C232.106667 657.066667 204.8 626.346667 204.8 585.386667v-402.773334c0-40.96 27.306667-71.68 64.853333-71.68h361.813334c34.133333 0 64.853333 30.72 64.853333 71.68v102.4c-3.413333 13.653333-10.24 20.48-20.48 20.48z m143.36 68.266667c0 3.413333 0 10.24-3.413333 13.653333 0 3.413333-3.413333 3.413333-3.413334 6.826667l-64.853333 78.506667c-3.413333 6.826667-10.24 6.826667-17.066667 6.826666s-13.653333-6.826667-13.653333-13.653333c-3.413333-6.826667 0-13.653333 3.413333-20.48l40.96-47.786667h-286.72c-10.24 0-20.48-10.24-20.48-20.48s10.24-20.48 20.48-20.48h283.306667L716.8 308.906667c-6.826667-6.826667-6.826667-20.48 0-30.72 3.413333-3.413333 10.24-6.826667 13.653333-6.826667 3.413333 0 10.24 3.413333 13.653334 6.826667l64.853333 75.093333c6.826667 6.826667 10.24 13.653333 10.24 20.48z m0 0"  horiz-adv-x="1024" />

    
    <glyph glyph-name="denglu-mima" unicode="&#58948;" d="M711.111111 506.311111H344.177778v56.888889c0 85.333333 71.111111 147.911111 162.133333 147.911111 88.177778 0 156.444444-65.422222 156.444445-150.755555v-5.688889c2.844444-14.222222 17.066667-25.6 31.288888-25.6 14.222222 0 28.444444 11.377778 31.288889 25.6v11.377777c0 56.888889-22.755556 113.777778-65.422222 153.6-42.666667 39.822222-96.711111 59.733333-153.6 59.733334h-2.844444c-56.888889 0-113.777778-19.911111-156.444445-59.733334-45.511111-39.822222-68.266667-96.711111-68.266666-153.6v-62.577777c-62.577778-17.066667-108.088889-71.111111-108.088889-136.533334V128c0-76.8 62.577778-142.222222 142.222222-142.222222h398.222222c76.8 0 142.222222 62.577778 142.222222 142.222222v236.088889c0 79.644444-62.577778 142.222222-142.222222 142.222222z m76.8-139.377778v-236.088889c0-42.666667-34.133333-76.8-76.8-76.8H312.888889c-42.666667 0-76.8 34.133333-76.8 76.8v236.088889c0 42.666667 34.133333 76.8 76.8 76.8h398.222222c42.666667 0 76.8-34.133333 76.8-76.8z m0 0M512 398.222222c-62.577778 0-110.933333-45.511111-119.466667-108.088889-8.533333-59.733333 28.444444-116.622222 88.177778-133.688889v-48.355555c2.844444-8.533333 5.688889-17.066667 14.222222-19.911111 5.688889-2.844444 11.377778-5.688889 17.066667-5.688889h5.688889c11.377778 2.844444 22.755556 11.377778 25.6 25.6V156.444444c56.888889 17.066667 93.866667 73.955556 88.177778 133.688889-8.533333 59.733333-59.733333 105.244444-119.466667 108.088889z m59.733333-122.311111c0-14.222222-5.688889-31.288889-17.066666-42.666667-11.377778-11.377778-25.6-17.066667-42.666667-17.066666-31.288889 0-59.733333 25.6-59.733333 59.733333 0 31.288889 25.6 59.733333 59.733333 59.733333 31.288889-2.844444 59.733333-28.444444 59.733333-59.733333z m0 0"  horiz-adv-x="1024" />

    


  </font>
</defs>
</svg>
